<svg xmlns="http://www.w3.org/2000/svg" viewBox="0 0 640 512">
  <path style="fill:currentColor"
    d="m 604,384 h -56 c -6.6,0 -12,5.4 -12,12 v 104 c 0,6.6 5.4,12 12,12 h 56 c 6.6,0 12,-5.4 12,-12 V 396 c 0,-6.6 -5.4,-12 -12,-12 z M 488,348 v 152 c 0,6.6 -5.4,12 -12,12 h -56 c -6.6,0 -12,-5.4 -12,-12 V 348 c 0,-6.6 5.4,-12 12,-12 h 56 c 6.6,0 12,5.4 12,12 z M 360,268 v 232 c 0,6.6 -5.4,12 -12,12 h -56 c -6.6,0 -12,-5.4 -12,-12 V 268 c 0,-6.6 5.4,-12 12,-12 h 56 c 6.6,0 12,5.4 12,12 z M 232,156 v 344 c 0,6.6 -5.4,12 -12,12 h -56 c -6.6,0 -12,-5.4 -12,-12 V 156 c 0,-6.6 5.4,-12 12,-12 h 56 c 6.6,0 12,5.4 12,12 z M 104,12 v 488 c 0,6.6 -5.4,12 -12,12 H 36 c -6.6,0 -12,-5.4 -12,-12 V 12 C 24,5.4 29.4,0 36,0 h 56 c 6.6,0 12,5.4 12,12 z" />
</svg>
