<svg xmlns="http://www.w3.org/2000/svg" viewBox="0 0 90 90">
  <path style="fill:none;stroke:currentColor;stroke-width:12;stroke-linecap:round"
     d="m 83.955977,45.129928 7.5e-5,-8.52e-4 m -78.2690032,0.0011 0.7838138,-2.49228 0.7998023,-2.49228 0.7838061,-2.449677 0.7998025,-2.428374 0.7838061,-2.407072 0.7998104,-2.34317 0.783805,-2.279264 0.783807,-2.215358 0.799802,-2.130155 0.783806,-2.06625 0.799802,-1.95974 0.783815,-1.853234 0.799802,-1.746726 0.783806,-1.640218 0.783806,-1.512407 0.799802,-1.363301 0.783815,-1.256788 0.799801,-1.1076796 0.783807,-0.9585677 0.783806,-0.8094585 0.799803,-0.6816497 0.783813,-0.511237 0.799802,-0.3408234 0.783806,-0.1917142 0.799802,-0.042597 0.783807,0.1065024 0.783813,0.27692 0.799803,0.4473316 0.783806,0.5751423 0.799803,0.7455532 0.783805,0.8946644 0.799811,1.0224729 0.783805,1.1928863 0.783807,1.299392 0.799802,1.448504 0.783806,1.576314 0.799802,1.68282 0.783814,1.81063 0.799803,1.91714 0.783806,2.002343 0.783805,2.08755 0.799803,2.194058 0.783814,2.236662 0.799802,2.321867 0.783806,2.364471 0.799802,2.428375 0.783807,2.449675 0.783814,2.470979 0.799802,2.470979 0.783806,2.513582 0.799802,2.470978 0.783807,2.470978 0.783814,2.449676 0.799802,2.428374 0.783806,2.364471 0.799803,2.321867 0.783806,2.236662 0.79981,2.194057 0.783806,2.087552 0.783806,2.002343 0.799803,1.917138 0.783805,1.810631 0.799808,1.682819 0.783806,1.576315 0.799803,1.448505 0.783806,1.299394 0.783805,1.192884 0.799811,1.022476 0.783806,0.894666 0.799803,0.745546 0.783805,0.575148 0.799803,0.447327 0.783806,0.276921 0.783814,0.106503 0.799802,-0.04264 0.783806,-0.191716 0.799802,-0.340826 0.783808,-0.511233 0.799809,-0.681651 0.783806,-0.809451 0.783806,-0.958571 0.799802,-1.107682 0.783807,-1.256791 0.799809,-1.363298 0.783807,-1.512408 0.783806,-1.64022 0.799803,-1.746726 0.783805,-1.853233 0.799811,-1.959741 0.783805,-2.066247 0.799803,-2.130155 0.783806,-2.215359 0.783806,-2.279264 0.79981,-2.343171 0.783807,-2.407073 0.799802,-2.428375 0.783806,-2.449677 0.799802,-2.492278 0.783814,-2.49228" />
  <path style="fill:none;stroke:currentColor;stroke-width:9;stroke-linecap:round;stroke-dasharray:27,31;stroke-dashoffset:0"
     d="m 6.6465408,60.811103 1.4946313,0.313638 1.464749,0.23523 1.4946309,0.156817 1.464735,0.08822 1.494631,0.01961 1.464742,-0.049 1.46475,-0.127415 1.494635,-0.205824 1.464734,-0.264633 1.494631,-0.34304 1.464736,-0.411648 1.494647,-0.470456 1.464735,-0.548865 1.464742,-0.597873 1.494627,-0.666479 1.464739,-0.725285 1.494628,-0.774293 1.464752,-0.833099 1.494631,-0.882106 1.464739,-0.921306 1.464736,-0.960516 1.494633,-1.00952 1.464751,-1.029122 1.494628,-1.068328 1.464737,-1.087928 1.494629,-1.117333 1.464741,-1.127135 1.464749,-1.136935 1.494632,-1.136935 1.464737,-1.156539 1.494635,-1.136933 1.464733,-1.136935 1.464754,-1.127135 1.49463,-1.117333 1.464739,-1.087928 1.494629,-1.068329 1.464738,-1.029122 1.494644,-1.009519 1.464738,-0.960513 1.464741,-0.921312 1.494629,-0.882103 1.464735,-0.8331 1.494639,-0.774292 1.464744,-0.725288 1.494627,-0.666478 1.464736,-0.597871 1.46474,-0.548863 1.494646,-0.470459 1.464735,-0.411648 1.494633,-0.343041 1.464733,-0.264631 1.494635,-0.205827" />
</svg>