<svg viewBox="18 31 317 275" xmlns="http://www.w3.org/2000/svg"><g fill="currentColor">
  <path
     d="m 259.66167,194.65451 c -18.23662,-17.594 -23.23394,-22.96166 -23.50156,-25.2432 -0.30676,-2.61528 1.88611,-5.06697 22.5,-25.15556 12.56194,-12.24183 23.80392,-22.51901 24.98219,-22.83818 2.53485,-0.68666 7.85341,1.82589 8.73652,4.12723 0.34165,0.89033 0.62118,7.88197 0.62118,15.53699 V 155 l 16.25,0.004 c 14.35284,0.003 16.62376,0.23163 19.45145,1.95578 8.67664,5.29045 8.31477,19.87801 -0.60757,24.49193 C 325.75525,182.66081 321.5838,183 309.04966,183 H 293 v 13.91821 c 0,7.65502 -0.27953,14.64666 -0.62118,15.53699 -0.70097,1.8267 -5.43617,4.5448 -7.91749,4.5448 -0.9009,0 -12.06075,-10.05547 -24.79966,-22.34549 z" />
  <path
     d="M 64.5,215.84527 C 60.349643,213.5752 60,212.13495 60,197.30887 V 183 H 43.95034 c -12.534139,0 -16.70559,-0.33919 -19.044222,-1.54855 -9.159173,-4.73639 -9.159173,-20.16651 0,-24.9029 C 27.24475,155.33919 31.416201,155 43.95034,155 H 60 v -14.5 c 0,-13.1044 0.190048,-14.69005 1.974564,-16.47456 2.396993,-2.397 6.340637,-3.50805 8.386939,-2.36288 0.828507,0.46365 11.661104,10.66698 24.072437,22.67405 C 112.81155,162.11564 117,166.66511 117,168.84773 c 0,2.11724 -2.78253,5.41248 -13.25,15.69145 -34.732165,34.10671 -34.487063,33.91121 -39.25,31.30609 z" />
  <path
     d="m 228.64255,306.01676 c -3.25623,0 -6.31537,-3.53688 -7.70992,-6.14264 -1.12922,-2.10996 -11.72629,-35.83441 -17.44219,-55.50857 -22.36773,-76.9898 -21.76333,-80.21946 3.03305,-160.86554 2.53664,-8.25 6.6093,-21.49565 9.05035,-29.434778 4.7692,-15.511037 6.02504,-18.101069 10.05806,-20.743602 3.44283,-2.255833 11.32622,-2.234307 14.79787,0.04041 3.64823,2.39041 6.56199,7.46685 6.56649,11.44031 0.002,1.816284 -2.97317,12.841284 -6.61161,24.5 -13.74738,44.0509 -19.2678,65.35834 -22.98014,88.69766 -2.2158,13.93064 -2.24308,24.62811 -0.0544,39.28319 2.82704,18.9299 10.56217,32.19792 18.97832,58.71681 11.84652,37.32781 12.03184,38.25691 8.71562,43.69567 -3.51289,5.7613 -9.80689,6.32108 -16.40145,6.32108 z" />
  <path
     d="M 114.01993,305.29653 C 109.65426,303.04282 106,297.6804 106,293.52773 c 0,-1.74708 3.18164,-13.49304 7.07031,-26.10212 19.32667,-62.66712 24.13571,-67.43702 24.27248,-96.92561 0.0866,-18.67592 -1.02687,-16.90241 -5.4441,-38 -3.84529,-18.36587 -6.41925,-21.57332 -20.82656,-68.5 -2.78619,-9.075 -5.06553,-17.85 -5.06522,-19.5 7e-4,-3.700432 3.01242,-8.811337 6.56332,-11.137974 3.47165,-2.274713 11.35504,-2.296239 14.79787,-0.04041 1.43223,0.938429 3.30879,2.781808 4.17014,4.096397 1.98272,3.026013 15.98207,48.222878 22.48166,72.581987 15.57458,58.37029 15.66915,58.89782 0.3956,116.80727 -5.31622,20.15639 -21.1051,71.07005 -22.8793,73.77782 -3.64163,5.55783 -11.68557,7.72145 -17.51627,4.71144 z" />
</g></svg>
