<?xml version="1.0" encoding="UTF-8" standalone="no"?>
<svg
   xmlns:dc="http://purl.org/dc/elements/1.1/"
   xmlns:cc="http://creativecommons.org/ns#"
   xmlns:rdf="http://www.w3.org/1999/02/22-rdf-syntax-ns#"
   xmlns:svg="http://www.w3.org/2000/svg"
   xmlns="http://www.w3.org/2000/svg"
   version="1.1"
   id="svg2"
   height="1053.4253"
   width="1091.2888">
  <g fill="currentColor" stroke="currentColor"
     transform="translate(-212.55683,21.790107)"
     id="layer1">
    <g
       transform="translate(-47.142856,-110)"
       id="g1376">
      <g
         id="g3138"
         transform="matrix(-0.99823924,0,0,1,2335.1129,0)">
        <path
           style="stroke-width:1"
           id="path4062"
           d="m 1512.5506,535.50131 h -25.7635 c -1.7176,0 -2.8626,1.14505 -2.8626,2.8626 v 2.86262 h -34.3514 c -1.7175,0 -2.8626,0.57253 -2.8626,2.29009 v 37.21397 c 0,1.43131 1.1451,3.43514 2.8626,3.43514 h 22.9009 v 5.72522 h -8.5878 c -1.7176,0 -2.8626,0.57253 -2.8626,2.2901 v 6.29774 h 48.6644 c 4.5802,0 5.7252,-1.14504 5.7252,-2.86261 v -57.25227 c 0,-1.71755 -1.145,-2.8626 -2.8626,-2.8626 z m -28.6261,60.11487 h -20.0383 v -2.86261 h 20.0383 z m 0,-5.72523 h -5.7252 v -5.72522 h 5.7252 z m 0,-11.45045 h -31.4888 v -2.86261 h 31.4888 z m 0,-5.72523 h -31.4888 v -25.7635 h 31.4888 z m 25.7635,20.0383 h -20.0383 v -51.52704 h 20.0383 z" />
        <rect
           style="stroke-width:1"
           id="rect4064"
           y="546.95178"
           x="1492.5123"
           width="14.313065"
           height="2.862613" />
        <rect
           style="stroke-width:1"
           id="rect4066"
           y="552.67694"
           x="1492.5123"
           width="14.313065"
           height="2.862613" />
        <rect
           style="stroke-width:1"
           id="rect4068"
           y="558.40216"
           x="1492.5123"
           width="14.313065"
           height="2.862613" />
        <circle
           style="stroke-width:2.86261296"
           id="circle4070"
           r="1.4313065"
           cy="585.59705"
           cx="1499.6688" />
        <circle
           r="56.839806"
           cy="567.57788"
           cx="1480.71"
           id="path4343"
           style="fill:none;stroke-width:4" />
      </g>
      <g
         id="g3177"
         transform="matrix(-0.99823924,0,0,1,2335.1129,0)">
        <path
           style="stroke-width:1"
           d="m 1310.0132,926.84713 c -4.1736,0 -7.3578,-3.47078 -9.2083,-10.03679 -0.8957,-3.17737 -1.2648,-6.32069 -1.4124,-8.08411 h -15.6033 c -2.2763,0 -4.2009,-1.05445 -5.7207,-3.13432 -3.0156,-4.12566 -3.5656,-11.22041 -3.6556,-14.40077 -14.7068,1.56314 -14.8807,33.82147 -14.8807,34.15492 h -2.2696 c 0,-0.37251 0.2089,-37.21813 18.273,-37.21813 h 1.1711 l -0.037,1.55112 c 0,0.0931 -0.1868,9.42996 3.0329,13.829 1.0909,1.49005 2.4277,2.21505 4.0867,2.21505 h 17.7261 l 0.051,1.43197 c 0.011,0.16722 0.6923,16.68993 8.4465,16.68993 v 3.00213 z"
           id="path3755" />
        <circle
           r="33.424797"
           cy="913.08704"
           cx="1284.0355"
           id="path4343-4"
           style="fill:none;stroke-width:4" />
      </g>
      <g
         id="g3088"
         transform="matrix(-0.99823924,0,0,1,2339.6763,86.857142)">
        <path
           style="stroke-width:1"
           d="m 1301.3264,484.01836 v 6.26838 h -12.8906 v -6.26838 c -12.313,2.90977 -21.4783,13.96411 -21.4783,27.1665 0,15.42193 12.5017,27.92356 27.9236,27.92356 15.4219,0 27.9236,-12.50163 27.9236,-27.92356 0,-13.20239 -9.1653,-24.25673 -21.4783,-27.1665 z m -25.8,29.42823 -0.3118,0.15001 -4.5844,2.19727 -1.2129,-2.53126 4.5844,-2.19728 0.3118,-0.15 0.019,-0.3457 c 0.075,-1.30196 0.8391,-2.45509 1.9957,-3.00821 0.477,-0.22851 0.9845,-0.34453 1.5083,-0.34453 0.7359,0 1.4778,0.23906 2.087,0.67382 l 0.2813,0.20039 0.3117,-0.14999 4.5844,-2.19728 1.2129,2.53009 -4.5844,2.19728 -0.3117,0.14999 -0.019,0.34571 c -0.075,1.30195 -0.8391,2.45508 -1.9957,3.00821 -0.477,0.22852 -0.9843,0.34454 -1.5083,0.34454 -0.7359,0 -1.4776,-0.23907 -2.087,-0.67384 z m 10.8809,7.00316 c 0.5097,1.2 0.3351,2.57228 -0.4559,3.58126 -0.6703,0.8543 -1.6852,1.34415 -2.7855,1.34415 -0.1946,0 -0.3915,-0.0153 -0.5837,-0.0468 l -0.341,-0.055 -0.2133,0.27187 -3.1371,4.0008 -2.209,-1.73086 3.1371,-4.00081 0.2133,-0.27186 -0.1347,-0.31875 c -0.5098,-1.20001 -0.3353,-2.57228 0.4558,-3.58127 0.6703,-0.8543 1.6851,-1.34414 2.7856,-1.34414 0.1945,0 0.3914,0.0153 0.5836,0.0468 l 0.341,0.055 0.2133,-0.27187 3.1371,-4.0008 2.2089,1.73204 -3.137,4.00079 -0.2133,0.27188 0.1348,0.31758 z m 10.18,10.1848 -0.3023,0.16758 v 0.34571 5.08362 h -2.8066 v -5.08362 -0.34571 l -0.3024,-0.16758 c -1.1414,-0.63048 -1.8503,-1.81759 -1.8503,-3.09962 0,-1.28203 0.7089,-2.46915 1.8503,-3.09962 l 0.3024,-0.16759 v -0.34569 -5.08362 h 2.8066 v 5.08362 0.34569 l 0.3023,0.16759 c 1.1414,0.63047 1.8505,1.81759 1.8505,3.09962 0,1.28203 -0.7091,2.46914 -1.8505,3.09962 z m 14.2841,-1.0875 -3.1371,-4.0008 -0.2133,-0.27187 -0.3411,0.055 c -0.1922,0.0316 -0.389,0.0468 -0.5835,0.0468 -1.1004,0 -2.1152,-0.48984 -2.7856,-1.34414 -0.791,-1.009 -0.9656,-2.38126 -0.4558,-3.58127 l 0.1347,-0.31875 -0.2132,-0.27188 -3.1372,-4.0008 2.2091,-1.73203 3.137,4.00079 0.2133,0.27188 0.341,-0.055 c 0.1922,-0.0316 0.3891,-0.0468 0.5837,-0.0468 1.1003,0 2.1152,0.48984 2.7855,1.34415 0.791,1.00898 0.9656,2.38125 0.4558,3.58125 l -0.1347,0.31876 0.2133,0.27187 3.137,4.0008 z m 3.6762,-15.95163 -0.3118,-0.15 -0.2812,0.20039 c -0.6094,0.43477 -1.35,0.67384 -2.0871,0.67384 -0.5238,0 -1.0313,-0.11602 -1.5082,-0.34454 -1.1555,-0.55429 -1.9207,-1.70626 -1.9958,-3.00821 l -0.019,-0.34571 -0.3117,-0.14999 -4.5844,-2.19728 1.2129,-2.53009 4.5844,2.19728 0.3117,0.14999 0.2813,-0.20039 c 0.6094,-0.43476 1.35,-0.67382 2.0872,-0.67382 0.5237,0 1.0312,0.11602 1.5081,0.34453 1.1555,0.55429 1.9208,1.70625 1.9957,3.00821 l 0.019,0.3457 0.3118,0.15 4.5844,2.19728 -1.213,2.53126 z"
           id="path3747" />
        <circle
           r="33.424797"
           cy="510.87891"
           cx="1294.631"
           id="path4343-4-6"
           style="fill:none;stroke-width:4" />
      </g>
      <g
         id="g3092"
         transform="matrix(-0.99823924,0,0,1,2341.1974,205.71428)">
        <path
           style="stroke-width:1"
           id="path4125"
           d="m 1129.6574,425.98839 c -2.8261,-0.0455 -5.9121,1.69454 -6.8948,4.85759 -0.046,0.14897 -0.7728,2.29632 -0.8102,2.45484 h -5.9547 c 2.3858,1.59106 3.1784,2.01085 5.5628,2.01085 0.3978,0 2.0049,-0.009 2.4027,-1.20138 0.1204,-0.36106 0.935,-2.72931 1.0972,-3.05589 0.7075,-1.42373 1.7943,-2.48052 3.1344,-2.48052 1.649,0 1.7254,1.58078 1.5933,3.18579 l -4.3615,53.30421 c -0.5996,7.30435 5.1643,14.31149 14.3114,14.31149 5.1967,0 8.5146,-1.67106 10.1856,-6.68496 1.6718,-5.01462 -0.8564,-14.3056 5.328,-16.37516 l -13.1358,-13.13653 c -4.6637,4.46642 -4.0965,13.98637 -3.1865,19.90075 0.1828,1.18668 0.023,4.7541 -1.5668,4.7541 -1.5911,0 -2.2421,-2.90545 -2.2464,-4.25727 l -0.1571,-51.81591 c 0.084,-3.90572 -2.4754,-5.72576 -5.3016,-5.772 z m 1.8802,28.65012 c 0.9886,0 1.8025,0.78745 1.8025,1.776 0,0.98854 -0.8139,1.80168 -1.8025,1.80168 -0.9885,0 -1.776,-0.81314 -1.776,-1.80168 0,-0.98855 0.7883,-1.776 1.776,-1.776 z m -0.2612,6.94695 c 0.9886,0 1.776,0.81388 1.776,1.80242 0,0.98854 -0.7874,1.776 -1.776,1.776 -0.9886,0 -1.8025,-0.78746 -1.8025,-1.776 0,-0.98854 0.8146,-1.80242 1.8025,-1.80242 z m -0.287,6.97337 c 0.9885,0 1.7753,0.78745 1.7753,1.776 0,0.98854 -0.7874,1.80242 -1.7753,1.80242 -0.9885,0 -1.8024,-0.81388 -1.8024,-1.80242 0,-0.98855 0.8139,-1.776 1.8024,-1.776 z" />
        <path
           style="stroke-width:1"
           id="path4127"
           d="m 1159.1647,476.50679 0.3368,-0.33758 c 0.3715,-0.37134 0.3715,-0.97827 0,-1.34888 l -16.3677,-16.36855 c -0.3707,-0.37135 -0.979,-0.37135 -1.3504,0 l -0.3375,0.33757 c -0.3707,0.37135 -0.3707,0.97828 0,1.34963 l 16.3685,16.36781 c 0.3706,0.37209 0.9782,0.37209 1.3503,0 z" />
        <circle
           r="44.296051"
           cy="462.15326"
           cx="1134.3148"
           id="path4343-4-3"
           style="fill:none;stroke-width:4" />
      </g>
      <g
         id="g3106"
         transform="matrix(-0.99823924,0,0,1,2341.1974,109.71428)">
        <path
           style="stroke-width:1"
           d="m 1411.4259,356.71691 c -0.1284,-0.11153 -31.4786,-22.07964 -31.4786,-22.07964 -0.6599,-0.99955 -1.6518,-2.11147 -2.871,-3.16172 -2.2332,-1.92051 -4.5567,-3.05271 -5.8224,-2.9395 l -10.2583,-7.1692 0.026,-0.0287 -0.12,-0.0364 -3.6813,-1.09841 -7.6347,8.86921 1.651,3.51658 0.035,0.0743 0.018,-0.0211 8.8523,8.80752 c 0.077,1.27077 1.5411,3.39745 3.7751,5.31966 1.2201,1.05024 2.4672,1.8639 3.5554,2.36833 0,0 26.3972,27.72374 26.5274,27.83359 2.3041,1.98304 8.0724,-0.94463 12.8851,-6.53721 4.8118,-5.5951 6.8465,-11.73687 4.5415,-13.71738 z m -48.1186,-19.48149 v 0.003 l -5.1127,-4.39954 4.2576,-4.94788 5.1126,4.40122 v 0.003 l 1.7228,5.78184 -5.9744,-0.8424 z m 14.9569,11.50622 -3.3721,-2.90148 2.9024,-3.37295 3.3729,2.90233 z m 11.246,9.67694 -3.373,-2.90401 2.9024,-3.3721 3.3729,2.90317 z m 19.0581,3.67544 c -0.8229,2.00839 -2.2542,4.25168 -4.032,6.31921 -1.7777,2.06584 -3.7836,3.81737 -5.6466,4.9293 -1.3256,0.79254 -2.2509,1.06292 -2.7426,1.1339 0,-0.49682 0.125,-1.45243 0.7122,-2.88121 0.823,-2.00754 2.2552,-4.25083 4.032,-6.31751 1.7778,-2.06669 3.7844,-3.81823 5.6459,-4.931 1.3265,-0.79254 2.2509,-1.06377 2.7426,-1.13389 0,0.49851 -0.1259,1.45243 -0.7115,2.8812 z"
           id="path3589" />
        <circle
           r="44.296051"
           cy="348.75537"
           cx="1378.8291"
           id="path4343-4-68"
           style="fill:none;stroke-width:4" />
      </g>
      <g
         id="g3097"
         transform="matrix(-0.99823924,0,0,1,2360.972,160)">
        <g
           transform="matrix(0.4216357,0,0,0.4216357,1180.518,239.37109)"
           id="g4085">
          <g
             id="g4087">
            <path
               id="path4089"
               d="M 115.2,0 H 21.333333 C 11.908267,0 4.2666667,7.6416 4.2666667,17.066667 V 119.46667 c 0,9.42506 7.6416003,17.06666 17.0666663,17.06666 H 115.2 c 9.42507,0 17.06667,-7.6416 17.06667,-17.06666 V 17.066667 C 132.26667,7.6416 124.62507,0 115.2,0 Z m 8.53333,119.46667 C 123.73333,124.17493 119.904,128 115.2,128 h -8.53333 V 76.8 H 98.133333 V 128 h -25.6 V 76.8 H 64 V 128 H 38.4 V 76.8 H 29.866667 V 128 H 21.333333 C 16.629333,128 12.8,124.17493 12.8,119.46667 V 17.066667 c 0,-4.708267 3.829333,-8.5333337 8.533333,-8.5333337 H 115.2 c 4.704,0 8.53333,3.8250667 8.53333,8.5333337 z"
               style="stroke-width:1" />
          </g>
        </g>
        <path
           id="path4091"
           d="m 1200.3068,239.37109 h -10.7939 v 28.78366 c 0,1.98878 1.6109,3.59796 3.5979,3.59796 h 3.598 c 1.987,0 3.598,-1.60918 3.598,-3.59796 z"
           style="stroke-width:1" />
        <path
           id="path4093"
           d="m 1214.6986,239.37109 h -10.7939 v 28.78366 c 0,1.98878 1.611,3.59796 3.598,3.59796 h 3.5979 c 1.987,0 3.598,-1.60918 3.598,-3.59796 z"
           style="stroke-width:1" />
        <path
           id="path4095"
           d="m 1229.0905,239.37109 h -10.794 v 28.78366 c 0,1.98878 1.611,3.59796 3.598,3.59796 h 3.598 c 1.987,0 3.598,-1.60918 3.598,-3.59796 z"
           style="stroke-width:1" />
        <circle
           r="44.296051"
           cy="269.02246"
           cx="1208.7322"
           id="path4343-4-9"
           style="fill:none;stroke-width:4" />
      </g>
      <g
         id="g3146"
         transform="matrix(-0.99823924,0,0,1,2335.1129,0)">
        <path
           style="stroke-width:1"
           d="m 1307.2973,782.55769 c -3.2937,0 -4.3336,-7.87054 -5.6507,-17.83522 -0.626,-4.73338 -1.7803,-13.47154 -2.9094,-14.51456 -1.1292,1.04302 -2.2845,9.78118 -2.9096,14.51456 -1.317,9.96468 -2.3569,17.83522 -5.6505,17.83522 -3.2918,0 -4.3308,-7.87054 -5.647,-17.83387 -0.625,-4.73203 -1.7793,-13.46613 -2.9066,-14.51591 -1.1292,1.04708 -2.2836,9.78252 -2.9086,14.51591 -1.317,9.96467 -2.356,17.83387 -5.6488,17.83387 -3.2917,0 -4.3316,-7.87054 -5.6478,-17.83522 -0.6371,-4.81974 -1.8212,-13.78997 -2.9689,-14.56448 l 0.062,-4.03174 c 3.2917,0 4.3307,7.87054 5.6469,17.83386 0.6249,4.73204 1.7793,13.46614 2.9067,14.5159 1.1282,-1.04842 2.2825,-9.78252 2.9076,-14.51455 1.317,-9.96467 2.356,-17.83521 5.6487,-17.83521 3.2918,0 4.3317,7.87054 5.6478,17.83521 0.6251,4.73203 1.7785,13.46613 2.9067,14.51455 1.1292,-1.04436 2.2845,-9.78252 2.9095,-14.5159 1.317,-9.96468 2.3569,-17.83386 5.6506,-17.83386 3.2936,0 4.3335,7.87054 5.6505,17.83521 0.6373,4.81975 1.8232,13.79267 2.9719,14.56448 z"
           id="path3721" />
        <circle
           r="32.588547"
           cy="765.13824"
           cx="1286.6932"
           id="path4343-4-7"
           style="fill:none;stroke-width:4" />
      </g>
      <g
         id="g3173"
         transform="matrix(-0.99823924,0,0,1,2335.1129,0)">
        <polygon
           transform="matrix(0.97332101,0,0,1.5548762,1773.7394,981.92785)"
           points="-345.613,-58.068 -356.915,-58.068 -356.915,-82.068 -362.191,-82.068 -362.191,-85.068 -353.915,-85.068 -353.915,-61.068 -348.613,-61.068 -348.613,-85.068 -337.481,-85.068 -337.481,-61.568 -331.671,-61.568 -331.671,-85.068 -320.54,-85.068 -320.54,-61.568 -315.941,-61.568 -315.941,-58.568 -323.54,-58.568 -323.54,-82.068 -328.671,-82.068 -328.671,-58.568 -340.481,-58.568 -340.481,-82.068 -345.613,-82.068 "
           id="polygon3751" />
        <circle
           r="35.933548"
           cy="871.44879"
           cx="1444.3872"
           id="path4343-4-91"
           style="fill:none;stroke-width:4" />
      </g>
      <g
         id="g3114"
         transform="matrix(-0.99823924,0,0,1,2335.1129,0)">
        <g
           transform="matrix(1.4262706,0,0,1.4426798,1612.8834,326.23571)"
           id="g3606">
          <path
             id="path3608"
             d="M 21.0976,3.5722667 19.912533,5.3472 c 2.1664,1.76 3.554134,4.4437333 3.554134,7.4528 0,3.010133 -1.387734,5.693867 -3.554134,7.453867 L 21.0976,22.027733 C 23.834667,19.8816 25.6,16.5504 25.6,12.8 25.6,9.0506667 23.835733,5.7194667 21.0976,3.5722667 Z M 18.72,7.1328 17.5232,8.9248 c 1.032533,0.9738667 1.685333,2.344533 1.685333,3.876267 0,1.531733 -0.6528,2.903466 -1.685333,3.877333 l 1.1968,1.792 c 1.5968,-1.371733 2.613333,-3.400533 2.613333,-5.6704 0,-2.2688 -1.015466,-4.2976 -2.613333,-5.6672 z M 12.8,1.0666667 c -1.255467,0 -1.6352,0.7296 -1.6352,0.7296 0,0 -3.2650667,3.5872 -5.5136,5.1701333 C 5.2373333,7.2298667 4.7829333,7.4666667 3.9786667,7.4666667 H 2.1333333 C 0.95573333,7.4666667 0,8.4224 0,9.6 V 16 c 0,1.1776 0.95573333,2.133333 2.1333333,2.133333 h 1.8453334 c 0.8042666,0 1.2586666,0.2368 1.6714666,0.500267 2.2485334,1.582933 5.5135997,5.1712 5.5135997,5.1712 0,0 0.3808,0.728533 1.636267,0.728533 1.1776,0 2.133333,-0.954666 2.133333,-2.133333 V 3.2 C 14.933333,2.0213333 13.9776,1.0666667 12.8,1.0666667 Z"
             style="clip-rule:evenodd;fill-rule:evenodd;stroke-width:1" />
        </g>
        <circle
           r="28.407295"
           cy="344.32574"
           cx="1631.3165"
           id="path4343-4-90"
           style="fill:none;stroke-width:4" />
      </g>
      <g
         id="g3123"
         transform="matrix(-0.99823924,0,0,1,2335.1129,0)">
        <path
           style="stroke-width:1"
           id="path3683"
           d="m 1874.0815,292.42801 h -38.7032 c -1.6036,0 -2.9021,1.47534 -2.9021,3.29634 v 68.67993 c 0,1.82094 1.2999,3.29627 2.9021,3.29627 h 38.7032 c 1.6036,0 2.9023,-1.47665 2.9023,-3.29627 v -68.67993 c 0,-1.81969 -1.3,-3.29634 -2.9023,-3.29634 z m -19.3522,61.52714 c -6.857,0 -12.4363,-5.57933 -12.4363,-12.43632 0,-6.85701 5.5793,-12.43633 12.4363,-12.43633 6.857,0 12.4364,5.57932 12.4364,12.43633 0,6.85699 -5.5794,12.43632 -12.4364,12.43632 z m 0,-50.33962 c 2.4938,0 4.5229,2.02895 4.5229,4.52289 0,2.49381 -2.0291,4.52289 -4.5229,4.52289 -2.4938,0 -4.5229,-2.02908 -4.5229,-4.52289 0,-2.49394 2.0291,-4.52289 4.5229,-4.52289 z" />
        <circle
           style="stroke-width:1.30908656"
           id="circle3685"
           r="6.4865241"
           cy="341.51877"
           cx="1854.7292" />
        <circle
           r="52.658554"
           cy="331.03696"
           cx="1855.4547"
           id="path4343-4-65"
           style="fill:none;stroke-width:4" />
      </g>
      <g
         id="g3110"
         transform="matrix(-0.99823924,0,0,1,2335.1129,0)">
        <path
           style="stroke-width:1"
           id="path3687"
           d="m 1592.603,196.73571 c 0,-19.50384 -15.8673,-35.37106 -35.371,-35.37106 -19.5038,0 -35.3711,15.86722 -35.3711,35.37106 0,2.32616 0.2285,4.65488 0.6996,7.01718 l 3.4983,13.84584 c 0.2491,2.97933 2.3197,5.62044 5.3738,6.43884 1.2509,0.33562 2.512,0.32014 3.6842,0.0207 l 0.5434,2.02795 c 0.5539,2.0654 2.6773,3.29172 4.7427,2.73795 l 5.4036,-1.44837 c 2.0654,-0.55378 3.2916,-2.67726 2.7378,-4.74265 l -5.3454,-19.95036 c -0.5539,-2.06539 -2.6772,-3.29171 -4.7427,-2.73792 l -5.4035,1.44835 c -2.0654,0.55379 -3.2918,2.67725 -2.7379,4.74265 l 1.0302,3.84162 c -1.0457,0.29562 -2.0152,0.81584 -2.8324,1.52968 l -2.175,-8.60621 c -0.4001,-2.01763 -0.6028,-4.09206 -0.6028,-6.16648 0,-17.36862 14.1298,-31.4986 31.4984,-31.4986 17.3686,0 31.4984,14.12998 31.4984,31.4986 0,2.13509 -0.2155,4.27276 -0.6195,6.26329 l -2.1764,8.59073 c -0.7862,-0.71384 -1.7402,-1.26246 -2.8219,-1.58389 l 1.0366,-3.87002 c 0.5538,-2.0654 -0.6726,-4.18887 -2.7379,-4.74267 l -5.4036,-1.44835 c -2.0654,-0.55378 -4.1888,0.67255 -4.7428,2.73794 l -5.3454,19.95036 c -0.5537,2.06538 0.6726,4.18887 2.7381,4.74265 l 5.4034,1.44835 c 2.0655,0.55378 4.189,-0.67255 4.7427,-2.73794 l 0.5384,-2.00859 c 3.8169,0.91522 7.687,-1.3554 8.7301,-5.1583 v 0 0 c 0,-0.0129 0.014,-0.0234 0.014,-0.0349 0,-0.0207 0.014,-0.0413 0.014,-0.062 l 3.786,-14.9547 c 0.4764,-2.3313 0.7178,-4.72973 0.7178,-7.12558 z" />
        <circle
           r="49.313553"
           cy="198.11064"
           cx="1556.9824"
           id="path4343-4-0"
           style="fill:none;stroke-width:4" />
      </g>
      <g
         id="g3119"
         transform="matrix(-0.99823924,0,0,1,2335.1129,0)">
        <polygon
           transform="matrix(0.98519297,0,0,1.8342633,1944.9319,141.01281)"
           points="-403.532,171.249 -408.439,164.378 -412.972,172.621 -417.252,161.462 -421.569,177.979 -426.233,163.208 -429.591,173.085 -434.319,165.33 -437.268,169.644 -443.712,162.577 -441.496,160.556 -437.606,164.822 -434.174,159.803 -430.367,166.048 -426.127,153.579 -421.84,167.154 -417.795,151.671 -412.486,165.512 -408.769,158.754 -403.676,165.884 -399.929,159.986 -395.431,165.632 -397.777,167.501 -399.654,165.147 "
           id="polygon3709" />
        <circle
           r="29.243546"
           cy="444.43484"
           cx="1531.2074"
           id="path4343-4-1"
           style="fill:none;stroke-width:4" />
      </g>
      <g
         id="g3128"
         transform="matrix(-0.99823924,0,0,1,2335.1129,0)">
        <rect
           style="stroke-width:1"
           id="rect3723"
           height="20.348608"
           width="6.0491967"
           y="493.80243"
           x="1733.8602" />
        <rect
           style="stroke-width:1"
           id="rect3725"
           height="34.918362"
           width="6.0491967"
           y="479.23273"
           x="1743.6777" />
        <rect
           style="stroke-width:1"
           id="rect3727"
           height="49.045643"
           width="6.0491967"
           y="465.10544"
           x="1753.495" />
        <rect
           style="stroke-width:1"
           id="rect3729"
           height="29.218407"
           width="6.0491967"
           y="484.93268"
           x="1763.3116" />
        <rect
           style="stroke-width:1"
           id="rect3731"
           height="40.697216"
           width="6.0491967"
           y="473.45389"
           x="1773.1289" />
        <rect
           style="stroke-width:1"
           id="rect3733"
           height="14.609203"
           width="6.0491967"
           y="499.5419"
           x="1782.9464" />
        <rect
           style="stroke-width:1"
           id="rect3735"
           height="20.348608"
           width="6.0491967"
           y="493.80243"
           x="1792.7637" />
        <circle
           r="44.296051"
           cy="491.64496"
           cx="1766.9146"
           id="path4343-4-8"
           style="fill:none;stroke-width:4" />
      </g>
      <g
         id="g3150"
         transform="matrix(-0.99823924,0,0,1,2335.1129,0)">
        <path
           style="stroke-width:1"
           d="m 1727.3945,743.90916 2.4688,4.27574 c 8.7113,3.46389 14.8939,11.96203 14.8939,21.89172 0,12.99489 -10.5727,23.56759 -23.5665,23.56759 -12.9938,0 -23.5665,-10.5727 -23.5665,-23.56759 0,-9.9308 6.1826,-18.42783 14.894,-21.89172 l 2.4688,-4.27574 c -11.8498,2.80977 -20.6945,13.47244 -20.6945,26.16857 0,14.83178 12.0664,26.89933 26.8982,26.89933 14.8318,0 26.8983,-12.06644 26.8983,-26.89933 0,-12.69724 -8.8458,-23.35992 -20.6945,-26.16857 z"
           id="path3865" />
        <path
           style="stroke-width:1"
           d="m 1701.7234,770.07662 c 0,10.75152 8.7159,19.46734 19.4673,19.46734 10.7516,0 19.4673,-8.71582 19.4673,-19.46734 0,-8.28714 -5.1863,-15.34487 -12.4829,-18.15463 l -6.9832,-12.09642 -6.9834,12.09642 c -7.2987,2.80976 -12.4851,9.8686 -12.4851,18.15463 z m 33.4151,0 c 0,7.70408 -6.2448,13.94887 -13.9488,13.94887 -7.7042,0 -13.949,-6.24479 -13.949,-13.94887 0,-7.70409 6.2448,-13.94887 13.949,-13.94887 7.704,0 13.9488,6.24589 13.9488,13.94887 z"
           id="path3867" />
        <circle
           r="35.097298"
           cy="769.56787"
           cx="1721.6805"
           id="path4343-4-4"
           style="fill:none;stroke-width:4" />
      </g>
      <g
         id="g3155"
         transform="matrix(-0.99823924,0,0,1,2335.1129,0)">
        <path
           style="stroke-width:1"
           d="m 1624.8847,914.27411 c -0.012,0 -0.021,-0.003 -0.033,-0.003 v 15.68785 h 1.7355 v -15.68697 c -0.012,0 -0.021,0.002 -0.033,0.002 h -1.6695 z"
           id="path3871" />
        <path
           style="stroke-width:1"
           d="m 1626.5542,896.47419 c 0.012,0 0.021,0.003 0.033,0.003 v -6.3614 h -1.7355 v 6.3614 c 0.012,0 0.021,-0.003 0.033,-0.003 h 1.6696 z"
           id="path3873" />
        <path
           style="stroke-width:1"
           d="m 1636.5332,906.01931 c 0.012,0 0.021,0.002 0.033,0.002 v -15.90565 h -1.7355 v 15.90565 c 0.012,0 0.021,-0.002 0.033,-0.002 z"
           id="path3875" />
        <path
           style="stroke-width:1"
           d="m 1634.8637,923.81923 c -0.012,0 -0.021,-0.003 -0.033,-0.003 v 6.14272 h 1.7355 v -6.14272 c -0.012,0 -0.021,0.003 -0.033,0.003 z"
           id="path3877" />
        <path
           style="stroke-width:1"
           d="m 1644.8427,917.74507 c -0.012,0 -0.021,-0.002 -0.033,-0.002 v 12.21602 h 1.7355 v -12.21602 c -0.012,0 -0.021,0.002 -0.033,0.002 z"
           id="path3879" />
        <path
           style="stroke-width:1"
           d="m 1646.5122,899.94514 c 0.012,0 0.021,0.003 0.033,0.003 v -9.83235 h -1.7355 v 9.83235 c 0.012,0 0.021,-0.003 0.033,-0.003 z"
           id="path3881" />
        <path
           style="stroke-width:1"
           d="m 1654.8217,921.21602 c -0.011,0 -0.021,-0.003 -0.033,-0.003 v 8.74594 h 1.7355 v -8.74594 c -0.012,0 -0.021,0.003 -0.033,0.003 h -1.6696 z"
           id="path3883" />
        <path
           style="stroke-width:1"
           d="m 1656.4912,903.4161 c 0.012,0 0.021,0.002 0.033,0.002 v -13.30244 h -1.7355 v 13.30244 c 0.012,0 0.021,-0.002 0.033,-0.002 z"
           id="path3885" />
        <path
           style="stroke-width:1"
           d="m 1666.4702,901.13741 c 0.012,0 0.021,0.003 0.033,0.003 v -11.02463 h -1.7355 v 11.02463 c 0.012,0 0.021,-0.003 0.033,-0.003 z"
           id="path3887" />
        <path
           style="stroke-width:1"
           d="m 1664.8006,918.93733 c -0.012,0 -0.021,-0.002 -0.033,-0.002 v 11.02375 h 1.7354 V 918.934 c -0.012,0 -0.021,0.003 -0.033,0.003 h -1.6696 z"
           id="path3889" />
        <path
           style="stroke-width:1"
           d="m 1626.5872,899.08087 v 0 c -0.012,0 -0.021,-0.003 -0.033,-0.003 h -1.6704 c -0.012,0 -0.021,0.003 -0.033,0.003 v 0 c -0.9242,0.0182 -1.6713,0.77228 -1.6713,1.70077 v 9.18414 c 0,0.92848 0.7471,1.68341 1.6713,1.70164 v 0 c 0.011,0 0.021,0.003 0.033,0.003 h 1.6704 c 0.012,0 0.021,-0.003 0.033,-0.003 v 0 c 0.9242,-0.0182 1.6713,-0.77228 1.6713,-1.70164 v -9.18414 c 0,-0.92849 -0.7471,-1.68255 -1.6713,-1.70077 z"
           id="path3891" />
        <path
           style="stroke-width:1"
           d="m 1636.5662,908.62599 v 0 c -0.012,0 -0.021,-0.003 -0.033,-0.003 h -1.6704 c -0.012,0 -0.021,0.003 -0.033,0.003 v 0 c -0.9242,0.0182 -1.6713,0.77229 -1.6713,1.70077 v 9.18415 c 0,0.92848 0.7471,1.68342 1.6713,1.70163 v 0 c 0.012,0 0.021,0.003 0.033,0.003 h 1.6704 c 0.012,0 0.021,-0.003 0.033,-0.003 v 0 c 0.9241,-0.0182 1.6712,-0.77228 1.6712,-1.70163 v -9.18415 c 0,-0.92848 -0.7471,-1.68255 -1.6712,-1.70077 z"
           id="path3893" />
        <path
           style="stroke-width:1"
           d="m 1646.5452,902.55183 v 0 c -0.012,0 -0.021,-0.003 -0.033,-0.003 h -1.6704 c -0.012,0 -0.021,0.003 -0.033,0.003 v 0 c -0.9241,0.0182 -1.6712,0.77229 -1.6712,1.70077 v 9.18414 c 0,0.92848 0.7471,1.68341 1.6712,1.70164 v 0 c 0.012,0 0.021,0.003 0.033,0.003 h 1.6704 c 0.012,0 0.021,-0.003 0.033,-0.003 v 0 c 0.9241,-0.0182 1.6712,-0.77229 1.6712,-1.70164 v -9.18414 c 0,-0.92848 -0.7471,-1.68255 -1.6712,-1.70077 z"
           id="path3895" />
        <path
           style="stroke-width:1"
           d="m 1656.5242,906.02278 v 0 c -0.012,0 -0.021,-0.003 -0.033,-0.003 h -1.6704 c -0.012,0 -0.021,0.003 -0.033,0.003 v 0 c -0.9241,0.0182 -1.6712,0.77229 -1.6712,1.70077 v 9.18414 c 0,0.92848 0.7471,1.68341 1.6712,1.70164 v 0 c 0.012,0 0.021,0.003 0.033,0.003 h 1.6704 c 0.012,0 0.021,-0.003 0.033,-0.003 v 0 c 0.9241,-0.0182 1.6712,-0.77228 1.6712,-1.70164 v -9.18414 c 0,-0.92848 -0.7471,-1.68255 -1.6712,-1.70077 z"
           id="path3897" />
        <path
           style="stroke-width:1"
           d="m 1666.5031,903.7441 v 0 c -0.012,0 -0.021,-0.003 -0.033,-0.003 h -1.6704 c -0.012,0 -0.021,0.003 -0.033,0.003 v 0 c -0.9241,0.0182 -1.6712,0.77228 -1.6712,1.70076 v 9.18415 c 0,0.92848 0.7471,1.68342 1.6712,1.70164 v 0 c 0.012,0 0.021,0.003 0.033,0.003 h 1.6704 c 0.012,0 0.021,-0.003 0.033,-0.003 v 0 c 0.9242,-0.0182 1.6713,-0.77229 1.6713,-1.70164 v -9.18415 c 0,-0.92848 -0.7471,-1.68253 -1.6713,-1.70076 z"
           id="path3899" />
        <circle
           r="35.097298"
           cy="909.5434"
           cx="1645.4913"
           id="path4343-4-39"
           style="fill:none;stroke-width:4" />
      </g>
      <path
         style="fill:none;stroke-width:4.26290894;stroke-linecap:butt;stroke-linejoin:miter;marker-mid:none"
         d="m 1033.2551,790.3233 -31.4224,48.75931"
         id="path6882" />
      <ellipse
         cy="847.78839"
         cx="-995.22943"
         style="fill-opacity:1;stroke:none;stroke-width:0.33209229"
         id="path4343-4-35-5"
         transform="scale(-1,1)"
         rx="16.758419"
         ry="16.787979" />
      <ellipse
         cy="726.01465"
         cx="-847.40717"
         style="fill-opacity:1;stroke:none;stroke-width:0.52185935"
         id="path4343-4-35-5-2"
         transform="scale(-1,1)"
         rx="26.334658"
         ry="26.381109" />
      <ellipse
         cy="805.89062"
         cx="-744.69623"
         style="fill-opacity:1;stroke:none;stroke-width:0.21029869"
         id="path4343-4-35-5-1"
         transform="scale(-1,1)"
         rx="10.612332"
         ry="10.631051" />
      <path
         style="fill:none;stroke-width:4.26290894;stroke-linecap:butt;stroke-linejoin:miter;marker-mid:none"
         d="m 986.31759,852.55987 -57.05436,11.16594"
         id="path6882-7" />
      <path
         style="fill:none;stroke-width:4.26290894;stroke-linecap:butt;stroke-linejoin:miter;marker-mid:none"
         d="M 1033.7424,887.47681 1003.154,855.11936"
         id="path6882-7-9" />
      <path
         style="fill:none;stroke-width:4.26290894;stroke-linecap:butt;stroke-linejoin:miter;marker-mid:none"
         d="M 990.18467,844.78201 854.06317,731.44042"
         id="path6882-7-9-2" />
      <path
         style="fill:none;stroke-width:4.26290894;stroke-linecap:butt;stroke-linejoin:miter;marker-mid:none"
         d="m 838.38503,733.25923 -90.98212,70.84541"
         id="path6882-7-6" />
      <path
         style="fill:none;stroke-width:4.26290894;stroke-linecap:butt;stroke-linejoin:miter;marker-mid:none"
         d="m 741.6243,812.47219 -34.53678,64.79793"
         id="path6882-7-0" />
      <path
         style="fill:none;stroke-width:4.26290894;stroke-linecap:butt;stroke-linejoin:miter;marker-mid:none"
         d="M 742.40163,804.90406 652.36404,776.75588"
         id="path6882-7-0-0" />
      <path
         style="fill:none;stroke-width:4.26290894;stroke-linecap:butt;stroke-linejoin:miter;marker-mid:none"
         d="m 847.68402,734.51541 5.3867,-109.73707"
         id="path6882-7-9-2-8" />
      <path
         style="fill:none;stroke-width:4.26290894;stroke-linecap:butt;stroke-linejoin:miter;marker-mid:none"
         d="m 914.22625,579.51409 101.28605,13.83477"
         id="path6882-7-9-2-8-6" />
      <path
         style="fill:none;stroke-width:4.26290894;stroke-linecap:butt;stroke-linejoin:miter;marker-mid:none"
         d="m 1068.0725,572.32731 36.8627,-43.507"
         id="path6882-7-9-2-8-6-6" />
      <ellipse
         cy="523.7486"
         cx="-1108.7489"
         style="fill-opacity:1;stroke:none;stroke-width:0.35687622"
         id="path4343-4-35-5-3"
         transform="scale(-1,1)"
         rx="18.009094"
         ry="18.040859" />
      <path
         style="fill:none;stroke-width:4.26290894;stroke-linecap:butt;stroke-linejoin:miter;marker-mid:none"
         d="m 1113.7381,518.84805 23.2361,-48.80287"
         id="path6882-7-9-2-8-6-6-2" />
      <path
         style="fill:none;stroke-width:4.26290894;stroke-linecap:butt;stroke-linejoin:miter;marker-mid:none"
         d="m 1006.1654,476.11571 90.6152,42.82381"
         id="path6882-7-9-2-8-6-4" />
      <path
         style="fill:none;stroke-width:4.26290894;stroke-linecap:butt;stroke-linejoin:miter;marker-mid:none"
         d="m 1119.0185,532.22982 68.4486,100.00746"
         id="path6882-7-9-2-8-6-2" />
      <path
         style="fill:none;stroke-width:4.26290894;stroke-linecap:butt;stroke-linejoin:miter;marker-mid:none"
         d="M 838.34699,515.35173 817.71848,470.50397"
         id="path6882-7-9-2-8-6-6-9" />
      <path
         style="fill:none;stroke-width:4.26290894;stroke-linecap:butt;stroke-linejoin:miter;marker-mid:none"
         d="M 785.4484,423.52039 728.04026,363.75361"
         id="path6882-7-9-2-8-6-6-9-5" />
      <path
         style="fill:none;stroke-width:4.26290894;stroke-linecap:butt;stroke-linejoin:miter;marker-mid:none"
         d="m 715.04209,318.37257 44.39729,-76.3775"
         id="path6882-7-9-2-8-6-6-9-5-5" />
      <path
         style="fill:none;stroke-width:4.26290894;stroke-linecap:butt;stroke-linejoin:miter;marker-mid:none"
         d="M 678.13139,339.81881 537.6964,335.32229"
         id="path6882-7-9-2-8-6-6-9-5-5-9" />
      <ellipse
         ry="19.553223"
         rx="18.217539"
         cy="561.4928"
         cx="-691.08649"
         style="fill-opacity:1;stroke:none;stroke-width:0.37367761"
         id="path4343-4-35-5-2-6"
         transform="scale(-1,1)" />
      <path
         style="fill:none;stroke-width:4.26290894;stroke-linecap:butt;stroke-linejoin:miter;marker-mid:none"
         d="m 704.77959,560.38274 94.35287,3.02528"
         id="path6882-7-9-2-8-6-3" />
      <path
         style="fill:none;stroke-width:4.26290894;stroke-linecap:butt;stroke-linejoin:miter;marker-mid:none"
         d="m 610.74176,512.69131 78.13977,44.41617"
         id="path6882-7-9-2-8-6-3-4" />
      <ellipse
         ry="16.421019"
         rx="15.299297"
         cy="626.98621"
         cx="-486.80692"
         style="fill-opacity:1;stroke:none;stroke-width:0.31381869"
         id="path4343-4-35-5-2-6-8"
         transform="scale(-1,1)" />
      <path
         style="fill:none;stroke-width:4.26290894;stroke-linecap:butt;stroke-linejoin:miter;marker-mid:none"
         d="M 493.3626,623.01079 689.94765,564.55887"
         id="path6882-7-9-2-8-6-3-4-5" />
      <path
         style="fill:none;stroke-width:4.26290894;stroke-linecap:butt;stroke-linejoin:miter;marker-mid:none"
         d="M 283.6521,528.29646 487.58439,631.3335"
         id="path6882-7-9-2-8-6-3-4-5-4" />
      <path
         style="fill:none;stroke-width:4.26290894;stroke-linecap:butt;stroke-linejoin:miter;marker-mid:none"
         d="M 567.60954,160.17354 500.63857,283.18448"
         id="path6882-7-9-2-8-6-3-4-5-4-4" />
      <ellipse
         ry="10.15661"
         rx="9.4628115"
         cy="155.27629"
         cx="-570.10187"
         style="fill-opacity:1;stroke:none;stroke-width:0.1941009"
         id="path4343-4-35-5-2-6-8-0"
         transform="scale(-1,1)" />
      <path
         style="fill:none;stroke-width:4.20035219;stroke-linecap:butt;stroke-linejoin:miter;marker-mid:none"
         d="M 269.52628,107.80143 566.93855,154.7695"
         id="path6882-7-9-2-8-6-3-4-5-4-49" />
      <path
         style="fill:none;stroke-width:4.26290894;stroke-linecap:butt;stroke-linejoin:miter;marker-mid:none"
         d="M 1200.326,865.64364 998.53285,849.38914"
         id="path6882-7-9-2-5" />
      <ellipse
         cy="866.12567"
         cx="-1206.3265"
         style="fill-opacity:1;stroke:none;stroke-width:0.28039825"
         id="path4343-4-35-5-1-1"
         transform="scale(-1,1)"
         rx="14.149776"
         ry="14.174735" />
      <path
         style="fill:none;stroke-width:4.26290894;stroke-linecap:butt;stroke-linejoin:miter;marker-mid:none"
         d="M 1342.7174,1133.3746 1210.8341,870.37403"
         id="path6882-7-9-2-5-2" />
      <path
         style="fill:none;stroke-width:4.26290894;stroke-linecap:butt;stroke-linejoin:miter;marker-mid:none"
         d="m 1311.4981,796.62286 -101.463,66.66029"
         id="path6882-7-9-2-5-6" />
      <ellipse
         cy="796.62634"
         cx="-1311.0437"
         style="fill-opacity:1;stroke:none;stroke-width:0.14833882"
         id="path4343-4-35-5-1-8"
         transform="scale(-1,1)"
         rx="7.4856434"
         ry="7.498847" />
      <path
         style="fill:none;stroke-width:4.26290894;stroke-linecap:butt;stroke-linejoin:miter;marker-mid:none"
         d="M 486.6166,624.6911 447.80935,760.83382"
         id="path6882-7-9-2-8-6-3-4-5-4-1" />
      <ellipse
         cy="764.1767"
         cx="-446.70187"
         style="fill-opacity:1;stroke:none;stroke-width:0.14833882"
         id="path4343-4-35-5-1-8-4"
         transform="scale(-1,1)"
         rx="7.4856434"
         ry="7.498847" />
      <path
         style="fill:none;stroke-width:4.26290894;stroke-linecap:butt;stroke-linejoin:miter;marker-mid:none"
         d="m 712.69463,493.43323 -16.95739,64.1391"
         id="path6882-7-9-2-8-6-3-4-5-4-1-3" />
      <ellipse
         cy="493.16953"
         cx="-713.2298"
         style="fill-opacity:1;stroke:none;stroke-width:0.30606288"
         id="path4343-4-35-5-1-8-4-0"
         transform="scale(-1,1)"
         rx="15.444893"
         ry="15.472136" />
      <path
         style="fill:none;stroke-width:4.26290894;stroke-linecap:butt;stroke-linejoin:miter;marker-mid:none"
         d="m 569.31403,154.6007 18.41812,63.99525"
         id="path6882-7-9-2-8-6-3-4-5-4-1-3-5" />
      <ellipse
         cy="221.67902"
         cx="-588.5285"
         style="fill-opacity:1;stroke:none;stroke-width:0.20692709"
         id="path4343-4-35-5-1-8-4-0-9"
         transform="scale(-1,1)"
         rx="10.442191"
         ry="10.460609" />
      <path
         style="fill:none;stroke-width:4.26290894;stroke-linecap:butt;stroke-linejoin:miter;marker-mid:none"
         d="M 630.03513,96.679009 573.91172,151.65491"
         id="path6882-7-9-2-8-6-3-4-5-4-1-3-5-8" />
      <ellipse
         cy="94.911858"
         cx="-631.60229"
         style="fill-opacity:1;stroke:none;stroke-width:0.13257527"
         id="path4343-4-35-5-1-8-4-0-9-8"
         transform="scale(-1,1)"
         rx="6.6901641"
         ry="6.7019649" />
      <path
         style="fill:none;stroke-width:4.26290894;stroke-linecap:butt;stroke-linejoin:miter;marker-mid:none"
         d="m 1201.8198,869.1032 -53.1315,111.40435"
         id="path6882-7-6-4" />
      <ellipse
         cy="982.32916"
         cx="-1147.1132"
         style="fill-opacity:1;stroke:none;stroke-width:0.14833882"
         id="path4343-4-35-5-1-8-5"
         transform="scale(-1,1)"
         rx="7.4856434"
         ry="7.498847" />
      <path
         style="fill:none;stroke-width:4.26290894;stroke-linecap:butt;stroke-linejoin:miter;marker-mid:none"
         d="m 447.27709,764.44208 65.93121,68.58004"
         id="path6882-7-9-2-8-6-3-4-5-4-1-5" />
      <path
         style="fill:none;stroke-width:4.26290894;stroke-linecap:butt;stroke-linejoin:miter;marker-mid:none"
         d="M 445.86857,765.13849 376.94015,783.8384"
         id="path6882-7-9-2-8-6-3-4-5-4-1-5-8" />
      <ellipse
         cy="832.67322"
         cx="-511.97284"
         style="fill-opacity:1;stroke:none;stroke-width:0.14833882"
         id="path4343-4-35-5-1-8-4-09"
         transform="scale(-1,1)"
         rx="7.4856434"
         ry="7.498847" />
      <ellipse
         cy="784.18591"
         cx="-376.44748"
         style="fill-opacity:1;stroke:none;stroke-width:0.14833882"
         id="path4343-4-35-5-1-8-4-3"
         transform="scale(-1,1)"
         rx="7.4856434"
         ry="7.498847" />
      <path
         style="fill:none;stroke-width:4.26290894;stroke-linecap:butt;stroke-linejoin:miter;marker-mid:none"
         d="m 690.89588,572.40365 2.80096,64.04154"
         id="path6882-7-9-2-8-6-3-4-5-4-1-5-8-6" />
      <ellipse
         cy="639.34131"
         cx="-693.50238"
         style="fill-opacity:1;stroke:none;stroke-width:0.14833882"
         id="path4343-4-35-5-1-8-4-09-1"
         transform="scale(-1,1)"
         rx="7.4856434"
         ry="7.498847" />
      <ellipse
         cy="528.04492"
         cx="-283.85284"
         style="fill-opacity:1;stroke:none;stroke-width:0.14833882"
         id="path4343-4-35-5-1-8-4-3-6"
         transform="scale(-1,1)"
         rx="7.4856434"
         ry="7.498847" />
      <ellipse
         cy="1134.1364"
         cx="-1343.5028"
         style="fill-opacity:1;stroke:none;stroke-width:0.14833882"
         id="path4343-4-35-5-1-8-4-3-7"
         transform="scale(-1,1)"
         rx="7.4856434"
         ry="7.498847" />
      <ellipse
         cy="107.56892"
         cx="-267.18533"
         style="fill-opacity:1;stroke:none;stroke-width:0.14833882"
         id="path4343-4-35-5-1-8-4-3-5"
         transform="scale(-1,1)"
         rx="7.4856434"
         ry="7.498847" />
    </g>
  </g>
</svg>
