<svg viewBox="0 0 370 370" xmlns="http://www.w3.org/2000/svg"><path fill="currentColor" d="m 20.9,361 c -4.31,-1.29 -6.94,-3.99 -7.67,-7.87 -0.57,-3.02 21.26,-152.3 22.58,-154.44 0.29,-0.47 14.72,-0.85 32.07,-0.85 h 31.54 l -0.64,6.13 c -0.35,3.37 -1.7,20.49 -2.98,38.04 l -2.34,31.9 2.73,2.35 c 1.85,1.59 4.86,2.59 9.36,3.1 4.99,0.57 7.28,1.4 9.27,3.39 2.46,2.46 2.6,3.16 2.02,10.33 -0.34,4.23 -1.13,18.49 -1.75,31.69 -0.62,13.2 -1.6,25.49 -2.17,27.31 -1.38,4.39 -4.83,7.43 -10.04,8.85 -5.11,1.39 -77.36,1.46 -81.98,0.08 z M 144.84,360.44 c -2.82,-0.88 -6.02,-2.83 -7.34,-4.48 -2.33,-2.91 -2.34,-3.03 -1.65,-36.47 0.55,-26.89 1.00,-34.02 2.26,-35.95 1.62,-2.47 7.41,-4.62 12.47,-4.63 1.58,0 4.09,-1.09 5.58,-2.41 l 2.7,-2.4 0.72,-38.13 0.72,-38.13 h 21.68 c 21.63,0 21.68,0 22.16,2.4 0.26,1.32 1,15.84 1.64,32.27 1.61,41.56 1.65,41.84 5.77,44.35 1.84,1.12 4.9,2.05 6.8,2.05 4.54,0 11.65,2.91 12.64,5.15 0.43,0.98 1.87,16.14 3.2,33.69 2.73,36.1 2.57,37.9 -3.82,41.64 -3.56,2.08 -5.55,2.2 -42.13,2.41 -31.21,0.18 -39.34,-0.07 -43.4,-1.35 z m 124.09,0.07 c -5.89,-1.84 -9.51,-5.22 -10.76,-10.07 -1.47,-5.71 -6.68,-63.06 -5.98,-65.85 0.8,-3.18 3.68,-4.61 11.47,-5.72 7.52,-1.06 10.45,-3.27 10.44,-7.87 0,-1.82 -1.89,-18.9 -4.19,-37.96 -2.3,-19.06 -4.07,-34.77 -3.93,-34.9 0.38,-0.38 63.8,-0.47 64.05,-0.1 0.51,0.76 29.47,150.9 29.44,152.65 -0.08,4.67 -3.17,8.11 -8.77,9.77 -7.57,2.25 -74.6,2.29 -81.78,0.05 z M 20.92,170.07 c -4.31,-1.29 -6.94,-3.99 -7.67,-7.87 C 12.69,159.17 34.51,9.89 35.84,7.75 36.13,7.28 50.56,6.9 67.9,6.9 h 31.54 l -0.64,6.13 c -0.35,3.37 -1.7,20.49 -2.98,38.04 l -2.34,31.9 2.73,2.35 c 1.85,1.59 4.86,2.59 9.36,3.1 4.99,0.57 7.28,1.4 9.27,3.39 2.46,2.46 2.6,3.16 2.02,10.33 -0.34,4.23 -1.13,18.49 -1.75,31.69 -0.62,13.2 -1.6,25.49 -2.17,27.31 -1.38,4.39 -4.83,7.43 -10.04,8.85 -5.11,1.39 -77.36,1.46 -81.98,0.08 z m 123.92,-0.56 c -2.82,-0.88 -6.02,-2.83 -7.34,-4.48 -2.33,-2.91 -2.34,-3.03 -1.65,-36.47 0.55,-26.89 1,-34.02 2.26,-35.95 1.62,-2.47 7.41,-4.62 12.47,-4.63 1.58,0 4.09,-1.09 5.58,-2.41 l 2.7,-2.4 0.72,-38.13 0.72,-38.13 h 21.68 c 21.63,0 21.68,0.01 22.16,2.4 0.26,1.32 1,15.84 1.64,32.27 1.61,41.56 1.65,41.84 5.77,44.35 1.84,1.12 4.9,2.05 6.8,2.05 4.54,0.01 11.65,2.91 12.64,5.15 0.43,0.98 1.87,16.14 3.2,33.69 2.73,36.1 2.57,37.9 -3.82,41.64 -3.56,2.08 -5.55,2.2 -42.13,2.41 -31.21,0.18 -39.34,-0.08 -43.4,-1.35 z m 124.09,0.07 c -5.89,-1.84 -9.51,-5.22 -10.76,-10.07 -1.47,-5.71 -6.68,-63.06 -5.98,-65.85 0.8,-3.18 3.68,-4.61 11.47,-5.72 7.52,-1.06 10.45,-3.27 10.44,-7.87 0,-1.82 -1.89,-18.9 -4.19,-37.96 -2.3,-19.06 -4.07,-34.77 -3.93,-34.9 0.38,-0.38 63.8,-0.47 64.05,-0.1 0.51,0.76 29.47,150.9 29.44,152.65 -0.08,4.67 -3.17,8.11 -8.77,9.77 -7.57,2.25 -74.6,2.29 -81.78,0.05 z" /></svg>
