<svg xmlns="http://www.w3.org/2000/svg" viewBox="0 0 683 683"><path fill="currentColor" d="M 219.75083,660.78926 C 154.02965,636.17845 94.743999,588.34008 55.501418,528.25431 27.653793,485.61577 10.621545,439.73631 3.0329719,386.92097 -0.15406112,364.73969 -0.16031112,319.41033 3.0206549,297.58763 8.4963439,260.02223 19.439225,224.16282 35.164247,192.2543 85.805019,89.496272 181.12645,20.868445 296.5361,4.0764408 c 22.02865,-3.20515003 67.30468,-3.20515003 89.33333,0 52.508,7.6398692 101.75825,26.1547632 143.33334,53.8840312 82.82012,55.238388 135.65579,139.548358 150.17038,239.627158 3.46307,23.87804 3.16219,68.64073 -0.62736,93.33334 -7.84591,51.12382 -24.70344,95.78098 -51.84168,137.33334 -38.33248,58.69228 -95.43155,105.51518 -159.03467,130.41304 -8.43334,3.30128 -16.54002,6.35383 -18.01486,6.78342 -2.22093,0.64692 -3.66398,-0.88544 -8.40121,-8.92115 -12.60384,-21.3798 -30.79908,-41.23332 -48.2506,-52.6481 -24.8851,-16.27697 -55.21181,-20.41816 -81.97374,-11.1937 -15.62457,5.38554 -27.87524,13.03144 -41.41488,25.84782 -13.07097,12.37277 -20.35229,21.38938 -29.69588,36.77298 l -6.48604,10.67885 z m -74.14349,-277.2771 c 12.73658,-4.7512 24.09889,-16.25243 29.16339,-29.51994 3.60308,-9.43902 2.98731,-27.98437 -1.24201,-37.4056 -3.93631,-8.76851 -15.18817,-20.2434 -24.17999,-24.65925 -6.72056,-3.30044 -8.89956,-3.67307 -21.47931,-3.67307 -12.57974,0 -14.75875,0.37263 -21.47931,3.67307 -8.933811,4.38737 -20.181651,15.82125 -24.258001,24.65925 -2.41776,5.24197 -2.92227,8.74868 -2.92548,20.33435 -0.004,12.5378 0.37456,14.77056 3.61951,21.37777 11.52407,23.46475 38.464741,34.28434 62.781201,25.21342 z m 426.66669,0 c 12.73657,-4.7512 24.09888,-16.25243 29.16338,-29.51994 3.60308,-9.43902 2.98731,-27.98437 -1.24201,-37.4056 -3.93631,-8.76851 -15.18817,-20.2434 -24.17999,-24.65925 -6.72056,-3.30044 -8.89956,-3.67307 -21.4793,-3.67307 -12.57975,0 -14.75875,0.37263 -21.47931,3.67307 -8.93382,4.38737 -20.18166,15.82125 -24.258,24.65925 -2.41776,5.24197 -2.92227,8.74868 -2.92548,20.33435 -0.004,12.5378 0.37456,14.77056 3.6195,21.37777 11.52407,23.46475 38.46474,34.28434 62.78121,25.21342 z M 212.23951,230.93627 c 9.04276,-4.48103 17.8913,-13.45191 23.18441,-23.50492 3.45396,-6.56001 3.77884,-8.38071 3.77884,-21.17705 0,-12.8585 -0.32075,-14.63356 -3.93379,-21.77036 -5.20614,-10.28363 -16.9368,-21.10524 -27.0201,-24.92626 -15.6635,-5.93557 -35.16344,-3.02945 -48.62094,7.24611 -21.06331,16.08304 -25.19369,48.09196 -8.9381,69.267 5.84793,7.61769 14.59712,14.14367 22.96082,17.12635 10.68187,3.80939 28.4384,2.76907 38.58886,-2.26087 z m 295.28022,2.63169 c 3.74053,-1.11082 9.92195,-4.36473 13.73648,-7.23092 38.83844,-29.18264 18.97916,-89.77702 -29.38677,-89.66452 -13.67786,0.0319 -23.20208,3.74934 -33.11232,12.92447 -4.54162,4.20473 -9.29634,10.29593 -11.62056,14.88695 -3.61304,7.1368 -3.93379,8.91186 -3.93379,21.77036 0,12.73946 0.33435,14.63458 3.71339,21.04786 6.81752,12.9394 16.61692,21.73926 29.05874,26.0947 7.60478,2.66217 22.87755,2.74501 31.54483,0.1711 z M 357.60382,170.68478 c 6.60727,-2.0883 16.2236,-8.6664 21.75307,-14.88032 11.7487,-13.20302 14.82093,-35.91865 7.19081,-53.1678 -3.61696,-8.176768 -15.08624,-19.731098 -23.86563,-24.042628 -6.72056,-3.30045 -8.89956,-3.67307 -21.47931,-3.67307 -12.57974,0 -14.75874,0.37262 -21.4793,3.67307 -8.93382,4.38737 -20.18166,15.82125 -24.258,24.659248 -2.41776,5.24197 -2.92227,8.74869 -2.92548,20.33435 -0.004,12.5378 0.37456,14.77056 3.6195,21.37777 6.90703,14.06376 21.74474,25.38327 36.57727,27.90436 7.71969,1.31214 16.14443,0.57187 24.86707,-2.18498 z" /></svg>
