<?xml version="1.0" encoding="UTF-8" standalone="no"?>
<svg xmlns="http://www.w3.org/2000/svg" viewBox="0 0 347.388 347.388">
  <g style="fill:currentColor">
    <path d="M 6.3038815,10.060855 V 315.19705 c 0,24.42785 5.0582745,30.22512 26.1100805,30.22512 h 46.228183 c 21.051805,0 26.110075,-5.79727 26.110075,-30.22512 V 205.38221 c 0,-8.1495 -5.67476,-14.74233 -12.703895,-14.74233 v 0 c -7.025899,0 -12.703899,-6.59283 -12.703899,-14.74233 V 10.060855 Z" />
    <path d="M 148.01929,10.060855 V 175.89943 c 0,8.1495 -5.21036,14.74233 -11.6505,14.74233 -6.43852,0 -11.64888,6.59283 -11.64888,14.74233 v 109.81484 c 0,24.42784 7.05828,30.22512 28.11008,30.22512 h 44.23142 c 21.04857,0 26.10685,-5.79728 26.10685,-30.22512 V 205.38409 c 0,-8.1495 -5.44985,-14.74233 -12.1683,-14.74233 -6.71684,0 -12.17154,-6.59283 -12.17154,-14.74233 V 10.060855 Z" />
    <path d="m 268.50488,175.89943 c 0,8.1495 -5.66829,14.74233 -12.7039,14.74233 v 0 c -7.02266,0 -12.7039,6.59283 -12.7039,14.74233 v 109.81484 c 0,24.42784 7.05504,30.22512 28.11008,30.22512 h 42.22819 c 21.05018,0 28.11008,-5.79728 28.11008,-30.22512 V 10.060855 H 268.50326 V 175.89943 Z" />
  </g>
</svg>