<?xml version="1.0" encoding="UTF-8" standalone="no"?>
<svg xmlns="http://www.w3.org/2000/svg" viewBox="0 0 300 300">
  <circle r="125" cy="150" cx="150" style="fill:#c17f44;" />
  <g transform="matrix(1.5575064,0,0,1.558,43,-1480)" style="fill:#292723; stroke:#292723">
    <path
       d="m 72.676086,1025.8048 c -7.125097,4.1799 -10.921541,11.7464 -8.586217,17.4385 2.491133,6.0715 11.051018,7.785 19.107157,3.8248 8.05614,-3.9603 12.572611,-12.1021 10.081479,-18.1736 -2.491133,-6.0715 -11.051019,-7.785 -19.107158,-3.8248 -0.503384,0.2475 -1.020206,0.4565 -1.495261,0.7351 z" />
    <path
       d="m 62.59134,1041.9741 c 7.125096,4.1282 10.92154,11.6013 8.586216,17.2231 -2.491131,5.9966 -11.051018,7.6889 -19.107157,3.7776 -8.056139,-3.9114 -12.572611,-11.9526 -10.081478,-17.9492 2.491132,-5.9966 11.051018,-7.6889 19.107158,-3.7775 0.503383,0.2444 1.020206,0.4507 1.495261,0.726 z" />
    <path style="stroke-width:9.7;stroke-linecap:round"
       d="m 68.41512,1038.3868 v 76.2147" />
    <path
       d="m 111.83388,991.12882 -5.26556,7.97713 c 9.62586,7.91005 15.79195,19.97165 15.79195,33.49535 0,13.5285 -6.16609,25.5901 -15.79195,33.5001 l 5.26556,7.9723 c 12.1613,-9.6454 20.00497,-24.6169 20.00497,-41.4724 0,-16.8507 -7.83896,-31.8222 -20.00497,-41.47248 z" />
    <path
       d="m 101.26935,1007.131 -5.317304,8.0539 c 4.587834,4.3769 7.488284,10.5371 7.488284,17.4212 0,6.8841 -2.90045,13.0491 -7.488284,17.426 l 5.317304,8.0538 c 7.09514,-6.165 11.61179,-15.2831 11.61179,-25.4846 0,-10.1967 -4.51193,-19.3149 -11.61179,-25.4703 z" />
    <path
       d="m 23.433428,1007.3335 5.265555,7.9771 c -9.625854,7.91 -15.791943,19.9716 -15.791943,33.4953 0,13.5285 6.166089,25.5902 15.791943,33.5001 l -5.265555,7.9724 c -12.161296,-9.6454 -20.0049677,-24.6169 -20.0049677,-41.4725 0,-16.8507 7.8389497,-31.8222 20.0049677,-41.4724 z" />
    <path
       d="m 33.997952,1023.3357 5.317309,8.0538 c -4.587839,4.3769 -7.488288,10.5371 -7.488288,17.4212 0,6.8841 2.900449,13.0491 7.488288,17.426 l -5.317309,8.0539 c -7.095134,-6.1651 -11.611788,-15.2831 -11.611788,-25.4847 0,-10.1967 4.511932,-19.3148 11.611788,-25.4702 z" />
  </g>
</svg>
