<svg
   xmlns="http://www.w3.org/2000/svg"
   height="256"
   width="256">
  <path
     id="path3102-3-0"
     d="m 15.540081,134.25579 c 0,0 8.759355,-20.69675 13.43952,-30.91098 3.913197,-8.540358 7.463281,-17.296446 12.237604,-25.386976 3.710753,-6.288214 7.55416,-12.659935 12.674682,-17.864892 3.295733,-3.350078 7.032623,-6.520334 11.363473,-8.344784 1.769105,-0.745268 3.771558,-1.130794 5.681755,-0.940256 3.954083,0.39441 7.948909,1.869896 11.144971,4.23115 8.063739,5.957497 13.248508,15.180164 18.465674,23.741521 8.60649,14.123226 14.08196,29.932807 20.84333,45.026547 6.00256,13.39982 11.5322,27.00782 17.50845,40.41939 3.66587,8.22673 7.02514,16.61234 11.25423,24.56423 2.82324,5.3085 5.96211,10.46172 9.39674,15.39671 2.45175,3.52276 4.6182,7.43492 7.97629,10.10778 4.44481,3.53783 9.73073,7.53367 15.40627,7.287 6.36318,-0.27655 11.86975,-5.26303 16.49892,-9.63765 6.42176,-6.06865 10.1576,-14.48272 14.64144,-22.09604 2.84562,-4.8317 5.36177,-9.85686 7.75775,-14.92659 3.3676,-7.12561 6.16325,-14.50785 9.28747,-21.74348 2.72284,-6.30604 8.24263,-18.88596 8.24263,-18.88596"
     style="fill:none;stroke:currentColor;stroke-width:40;stroke-linecap:round" />
</svg>
