<svg version="1.0" xmlns="http://www.w3.org/2000/svg" viewBox="20 90 470 278">
  <g transform="translate(0.000000,512.000000) scale(0.100000,-0.100000)" stroke="none">
    <path fill="currentColor" d="M1800 4154 c-14 -2 -52 -9 -85 -15 -212 -36 -425 -149 -585 -309 -159 -159 -262 -353 -311 -585 -26 -122 -14 -406 22 -502 l9 -23 355 0 356 0 -24 33 c-61 80 -97 188 -97 287 0 258 222 480 480 480 258 0 480 -222 480 -480 0 -218 -166 -424 -378 -469 -37 -8 -305 -11 -877 -11 l-825 0 0 -320 0 -321 882 4 c958 4 911 1 1083 60 276 95 506 298 637 562 80 160 112 303 112 495 0 152 -9 213 -51 345 -55 169 -145 317 -273 445 -157 156 -343 258 -565 306 -68 15 -295 27 -345 18z"/>
    <path fill="secondColor" d="M3505 3018 c-20 -18 -28 -34 -28 -57 0 -29 21 -54 184 -217 l184 -184 -367 0 -367 0 -52 -101 c-106 -206 -250 -366 -445 -494 l-68 -45 649 0 650 0 -184 -184 c-163 -163 -184 -188 -184 -217 0 -23 8 -39 27 -56 l28 -24 267 3 c257 3 268 4 312 27 32 16 152 129 382 360 327 328 336 337 342 383 12 82 -6 105 -353 451 -271 269 -327 321 -378 344 -59 28 -60 28 -315 31 l-256 4 -28 -24z"/>
  </g>
</svg>
