<svg xmlns="http://www.w3.org/2000/svg" viewBox="0 0 512 512">
  <g fill="currentColor">
    <path d="M 215.03,71.05 126.06,160 H 24 C 10.74,160 0,170.74 0,184 v 144 c 0,13.25 10.74,24 24,24 h 102.06 l 88.97,88.95 C 230.06,455.98 256,445.42 256,423.98 V 88.02 C 256,66.56 230.04,56.04 215.03,71.05 Z" />
    <path d="m 480,256 c 0,-63.53 -32.06,-121.94 -85.77,-156.24 -11.19,-7.14 -26.03,-3.82 -33.12,7.46 -7.09,11.28 -3.78,26.21 7.41,33.36 39.75,25.39 63.48,68.53 63.48,115.42 0,46.89 -23.73,90.03 -63.48,115.42 -11.19,7.14 -14.5,22.07 -7.41,33.36 6.51,10.36 21.12,15.14 33.12,7.46 C 447.94,377.94 480,319.54 480,256 Z" />
    <path d="m 338.23,179.13 c -11.58,-6.33 -26.19,-2.16 -32.61,9.45 -6.39,11.61 -2.16,26.2 9.45,32.61 12.91,7.09 20.93,20.44 20.93,34.81 0,14.38 -8.02,27.72 -20.92,34.81 -11.61,6.41 -15.84,21 -9.45,32.61 6.43,11.66 21.05,15.8 32.61,9.45 28.23,-15.55 45.77,-45 45.77,-76.88 0,-31.88 -17.54,-61.32 -45.78,-76.86 z" />
  </g>
</svg>
