<?xml version="1.0" encoding="UTF-8" standalone="no"?>
<svg
   height="511pt"
   version="1.1"
   viewBox="-53 1 511 511.99906"
   width="511pt"
   id="svg3"
   xml:space="preserve"
   sodipodi:docname="icon-file-organ.svg"
   inkscape:version="1.4.3 (0d15f75042, 2025-12-25)"
   xmlns:inkscape="http://www.inkscape.org/namespaces/inkscape"
   xmlns:sodipodi="http://sodipodi.sourceforge.net/DTD/sodipodi-0.dtd"
   xmlns="http://www.w3.org/2000/svg"
   xmlns:svg="http://www.w3.org/2000/svg"><sodipodi:namedview
     id="namedview1"
     pagecolor="#ffffff"
     bordercolor="#000000"
     borderopacity="0.25"
     inkscape:showpageshadow="2"
     inkscape:pageopacity="0.0"
     inkscape:pagecheckerboard="0"
     inkscape:deskcolor="#d1d1d1"
     inkscape:document-units="pt"
     inkscape:zoom="1.1208948"
     inkscape:cx="427.78325"
     inkscape:cy="259.61403"
     inkscape:window-width="1920"
     inkscape:window-height="1011"
     inkscape:window-x="0"
     inkscape:window-y="0"
     inkscape:window-maximized="1"
     inkscape:current-layer="svg3" /><defs
     id="defs3"><inkscape:path-effect
       effect="fillet_chamfer"
       id="path-effect2"
       is_visible="true"
       lpeversion="1"
       nodesatellites_param="F,0,0,1,0,0,0,1 @ F,0,0,1,0,2.0000971,0,1 @ F,0,0,1,0,2.2082163,0,1 @ F,0,0,1,0,0,0,1 @ F,0,0,1,0,1.6797744,0,1 @ F,0,0,1,0,1.6939273,0,1"
       radius="0"
       unit="px"
       method="auto"
       mode="F"
       chamfer_steps="1"
       flexible="false"
       use_knot_distance="true"
       apply_no_radius="true"
       apply_with_radius="true"
       only_selected="false"
       hide_knots="false" /><inkscape:path-effect
       effect="fillet_chamfer"
       id="path-effect1"
       is_visible="true"
       lpeversion="1"
       nodesatellites_param="F,0,0,1,0,0,0,1 @ F,0,0,1,0,3.2802716,0,1 @ F,0,0,1,0,2.8579645,0,1 @ F,0,0,1,0,0,0,1 @ F,0,0,1,0,1.5707277,0,1 @ F,0,0,1,0,1.438611,0,1"
       radius="0"
       unit="px"
       method="auto"
       mode="F"
       chamfer_steps="1"
       flexible="false"
       use_knot_distance="true"
       apply_no_radius="true"
       apply_with_radius="true"
       only_selected="false"
       hide_knots="false" /><inkscape:path-effect
       effect="fillet_chamfer"
       id="path-effect7"
       is_visible="true"
       lpeversion="1"
       nodesatellites_param="F,0,0,1,0,0,0,1 @ F,0,0,1,0,3.9530603,0,1 @ F,0,0,1,0,4.1173826,0,1 @ F,0,0,1,0,0,0,1 @ F,0,0,1,0,0,0,1 @ F,0,0,1,0,0,0,1"
       radius="0"
       unit="px"
       method="auto"
       mode="F"
       chamfer_steps="1"
       flexible="false"
       use_knot_distance="true"
       apply_no_radius="true"
       apply_with_radius="true"
       only_selected="false"
       hide_knots="false" /><inkscape:path-effect
       effect="fillet_chamfer"
       id="path-effect6"
       is_visible="true"
       lpeversion="1"
       nodesatellites_param="F,0,0,1,0,0,0,1 @ F,0,0,1,0,2.2405872,0,1 @ F,0,0,1,0,2.5707083,0,1 @ F,0,0,1,0,0,0,1 @ F,0,0,1,0,1.7002011,0,1 @ F,0,0,1,0,1.4445514,0,1"
       radius="0"
       unit="px"
       method="auto"
       mode="F"
       chamfer_steps="1"
       flexible="false"
       use_knot_distance="true"
       apply_no_radius="true"
       apply_with_radius="true"
       only_selected="false"
       hide_knots="false" /><inkscape:path-effect
       effect="fillet_chamfer"
       id="path-effect5"
       is_visible="true"
       lpeversion="1"
       nodesatellites_param="F,0,0,1,0,0,0,1 @ F,0,0,1,0,0,0,1 @ F,0,0,1,0,0,0,1 @ F,0,0,1,0,0,0,1 @ F,0,0,1,0,0,0,1 @ F,0,0,1,0,0,0,1"
       radius="0"
       unit="px"
       method="auto"
       mode="F"
       chamfer_steps="1"
       flexible="false"
       use_knot_distance="true"
       apply_no_radius="true"
       apply_with_radius="true"
       only_selected="false"
       hide_knots="false" /><inkscape:path-effect
       effect="fillet_chamfer"
       id="path-effect4"
       is_visible="true"
       lpeversion="1"
       nodesatellites_param="F,0,0,1,0,0,0,1 @ F,0,0,1,0,0,0,1 @ F,0,0,1,0,0,0,1 @ F,0,0,1,0,0,0,1 @ F,0,0,1,0,0,0,1 @ F,0,0,1,0,0,0,1"
       radius="0"
       unit="px"
       method="auto"
       mode="F"
       chamfer_steps="1"
       flexible="false"
       use_knot_distance="true"
       apply_no_radius="true"
       apply_with_radius="true"
       only_selected="false"
       hide_knots="false" /></defs><path
     style="fill:#ffffff;stroke-width:0.751466;fill-opacity:1"
     d="M 30.980317,26.377019 8.5803579,68.616942 16.260344,471.17621 l 40.959923,29.43995 297.599463,-2.56 35.83994,-28.15994 L 395.13966,146.6968 263.2999,12.297044 59.140264,7.8170525 Z"
     id="path2"
     inkscape:label="Background"
     transform="translate(3.3446314e-7,1.5029327)" /><path
     d="M 276.41016,3.957031 C 274.0625,1.484375 270.84375,0 267.50781,0 H 67.777344 C 30.921875,0 0.49982459,30.300781 0.49984018,67.152344 L 0.5,444.84375 C 0.5000156,481.69922 30.921875,512 67.777344,512 H 338.86328 c 36.85547,0 67.27707,-30.30045 67.2771,-67.15592 l 2.4e-4,-299.90267 c 0,-3.21485 -1.48437,-6.30469 -3.58593,-8.65625 z M 338.86328,487.26562 H 67.777344 c -23.125,0 -42.542969,-19.16796 -42.542969,-42.42187 V 67.152344 c 0,-23.125 19.292969,-42.417969 42.542969,-42.417969 H 255.26172 v 78.160155 c 0,30.05078 24.24219,54.16797 54.29297,54.16797 h 71.85156 v 287.78125 c 0,23.25391 -19.29297,42.42187 -42.54297,42.42187 z"
     style="fill:#c17f44;fill-opacity:1;fill-rule:nonzero;stroke:none;stroke-opacity:1"
     id="path1"
     inkscape:label="Tour"
     transform="translate(3.3446314e-7,1.5029327)" /><path
     style="fill:#ffffff;fill-opacity:1;stroke:none;stroke-width:0.751466;stroke-opacity:1"
     d="m 112.82501,330.14226 v 140.27372 h 130.25417 c 12.84542,0 20.0391,-7.7251 20.0391,-20.0391 V 350.18136 c 0,-13.2007 -7.3009,-19.06267 -20.0391,-20.0391 z"
     id="path6-5"
     sodipodi:nodetypes="ccssssc"
     inkscape:label="Banner margin"
     transform="translate(3.3446314e-7,1.5029327)" /><path
     style="fill:#4a4c61;fill-opacity:1;stroke:none;stroke-width:0.751466;stroke-opacity:1"
     d="m 0.49983985,301.58654 v -20.0391 l -29.95244685,20.0391 v 100.19552 c 0,12.37401 7.665086,20.0391 20.0391031,20.0391 H 233.05964 c 12.84542,0 20.0391,-7.7251 20.0391,-20.0391 v -80.15641 c 0,-13.2007 -7.26353,-20.03911 -20.0391,-20.03911 z"
     id="path6"
     transform="translate(3.3446314e-7,40.078203)"
     sodipodi:nodetypes="cccssssssc"
     inkscape:label="Banner" /><text
     xml:space="preserve"
     style="font-size:125.244px;writing-mode:lr-tb;direction:ltr;fill:#ffffff;fill-opacity:1;stroke:none;stroke-width:0.751466;stroke-opacity:1"
     x="-22.435148"
     y="429.41599"
     id="text6"
     inkscape:label="Text"><tspan
       id="tspan6"
       style="font-style:normal;font-variant:normal;font-weight:normal;font-stretch:normal;font-size:125.244px;font-family:'Patrick Hand SC';-inkscape-font-specification:'Patrick Hand SC';fill:#ffffff;fill-opacity:1;stroke-width:0.751466"
       x="-22.435148"
       y="429.41599">organ</tspan></text><g
     id="g4"
     transform="matrix(2.5952284,-0.79398695,0.79398695,2.5952284,-14.393381,87.724485)"><path
       d="M 103.2,144.77 V 42.400587 A 2.2405872,2.2405872 45 0 0 100.95941,40.16 H 89.210708 A 2.5707083,2.5707083 135 0 0 86.64,42.730708 V 144.77 c 0,2.33213 5.166017,37.39277 6.37091,45.53841 0.137379,0.92874 1.010296,1.68159 1.949291,1.68159 h 0.175248 c 0.797803,0 1.540882,-0.63953 1.659289,-1.4285 C 97.931993,182.98376 103.2,147.72272 103.2,144.77 Z"
       transform="translate(-17.86,-35.26)"
       fill="#961023"
       id="path53"
       style="fill:#26211f;fill-opacity:1"
       inkscape:path-effect="#path-effect6"
       inkscape:original-d="M 103.2,144.77 V 40.16 H 86.64 v 104.61 c 0,2.64 6.62,47.22 6.62,47.22 h 3.32 c 0,0 6.62,-43.91 6.62,-47.22 z" /><rect
       x="70.290001"
       y="97.330002"
       width="13.53"
       height="6.3200002"
       rx="1.46"
       fill="#ffffff"
       id="rect54" /></g><g
     id="g3"
     transform="matrix(2.3180563,-1.4114674,1.4114674,2.3180563,-69.835019,91.464749)"><path
       d="m 73.89,117.74 -9.39e-4,-66.916376 a 3.2802517,3.2802517 44.999022 0 0 -3.280318,-3.280206 l -10.421691,2.1e-4 a 2.8579848,2.8579848 134.99905 0 0 -2.857927,2.858021 L 57.33,117.74 c 3e-5,2.35358 5.261309,37.80525 6.438313,45.70672 C 63.896102,164.3046 64.703239,165 65.570728,165 h 0.300661 c 0.794523,0 1.533894,-0.637 1.651015,-1.42284 C 68.650617,156.0072 73.89,120.69362 73.89,117.74 Z"
       transform="translate(-17.86,-35.26)"
       fill="#961023"
       id="path54"
       style="fill:#26211f;fill-opacity:1"
       sodipodi:nodetypes="sccsccs"
       inkscape:path-effect="#path-effect1"
       inkscape:original-d="M 73.89,117.74 73.889015,47.543352 57.329088,47.543685 57.33,117.74 C 57.330034,120.39 64,165 64,165 h 3.31 c 0,0 6.58,-43.95 6.58,-47.26 z" /><rect
       x="40.98"
       y="70.300003"
       width="13.53"
       height="6.3200002"
       rx="1.46"
       fill="#ffffff"
       id="rect55" /></g><g
     id="g2"
     transform="matrix(2.7138811,0.0217861,-0.0217861,2.7138811,295.73267,183.31601)"><path
       d="M 44.59,91.81 V 42.160097 A 2.0000971,2.0000971 45 0 0 42.589903,40.16 H 30.208216 A 2.2082163,2.2082163 135 0 0 28,42.368216 L 28,91.81 c 0,2.342783 5.197493,37.42586 6.402595,45.52881 0.13645,0.91748 0.999466,1.66119 1.927179,1.66119 0.922456,0 1.782754,-0.75 1.921018,-1.67526 C 39.455463,129.26314 44.59,94.731702 44.59,91.81 Z"
       transform="translate(-17.86,-35.26)"
       fill="#961023"
       id="path55"
       style="fill:#26211f;fill-opacity:1"
       inkscape:path-effect="#path-effect2"
       inkscape:original-d="M 44.59,91.81 V 40.16 H 28 V 91.81 C 28,94.46 34.65,139 34.65,139 H 38 c 0,0 6.59,-43.88 6.59,-47.19 z" /><rect
       x="11.67"
       y="44.369999"
       width="13.53"
       height="6.3200002"
       rx="1.46"
       fill="#ffffff"
       id="rect56" /></g></svg>
