<?xml version="1.0" encoding="UTF-8" standalone="no"?>
<svg
   height="511pt"
   version="1.1"
   viewBox="-53 1 511 511.99906"
   width="511pt"
   id="svg3"
   xml:space="preserve"
   sodipodi:docname="file2.svg"
   inkscape:version="1.4.3 (0d15f75042, 2025-12-25)"
   xmlns:inkscape="http://www.inkscape.org/namespaces/inkscape"
   xmlns:sodipodi="http://sodipodi.sourceforge.net/DTD/sodipodi-0.dtd"
   xmlns="http://www.w3.org/2000/svg"
   xmlns:svg="http://www.w3.org/2000/svg"><sodipodi:namedview
     id="namedview1"
     pagecolor="#ffffff"
     bordercolor="#000000"
     borderopacity="0.25"
     inkscape:showpageshadow="2"
     inkscape:pageopacity="0.0"
     inkscape:pagecheckerboard="0"
     inkscape:deskcolor="#d1d1d1"
     inkscape:document-units="pt"
     inkscape:zoom="0.36468153"
     inkscape:cx="21.936949"
     inkscape:cy="400.34932"
     inkscape:window-width="1920"
     inkscape:window-height="1011"
     inkscape:window-x="0"
     inkscape:window-y="0"
     inkscape:window-maximized="1"
     inkscape:current-layer="svg3" /><defs
     id="defs3" /><path
     style="fill:#ffffff;stroke-width:0.751466;fill-opacity:1"
     d="M 30.980317,26.377019 8.5803579,68.616942 16.260344,471.17621 l 40.959923,29.43995 297.599463,-2.56 35.83994,-28.15994 L 395.13966,146.6968 263.2999,12.297044 59.140264,7.8170525 Z"
     id="path2"
     inkscape:label="Background"
     transform="translate(3.3446314e-7,1.5029327)" /><path
     d="M 276.41016,3.957031 C 274.0625,1.484375 270.84375,0 267.50781,0 H 67.777344 C 30.921875,0 0.49982459,30.300781 0.49984018,67.152344 L 0.5,444.84375 C 0.5000156,481.69922 30.921875,512 67.777344,512 H 338.86328 c 36.85547,0 67.27707,-30.30045 67.2771,-67.15592 l 2.4e-4,-299.90267 c 0,-3.21485 -1.48437,-6.30469 -3.58593,-8.65625 z M 338.86328,487.26562 H 67.777344 c -23.125,0 -42.542969,-19.16796 -42.542969,-42.42187 V 67.152344 c 0,-23.125 19.292969,-42.417969 42.542969,-42.417969 H 255.26172 v 78.160155 c 0,30.05078 24.24219,54.16797 54.29297,54.16797 h 71.85156 v 287.78125 c 0,23.25391 -19.29297,42.42187 -42.54297,42.42187 z"
     style="fill:#c17f44;fill-opacity:1;fill-rule:nonzero;stroke:none;stroke-opacity:1"
     id="path1"
     inkscape:label="Tour"
     transform="translate(3.3446314e-7,1.5029327)" /><path
     d="m 138.79694,92.982201 c -14.78817,-3.504141 -17.9551,-23.13661 -5.02205,-31.114652 12.93304,-7.978044 29.05702,3.661566 25.55288,18.449733 -2.17212,9.166758 -11.3641,14.837036 -20.53083,12.664919 z m 135.01529,300.666659 11.50585,-7.09761 c 4.6136,-2.84652 10.59506,-2.0406 14.29072,1.92547 l 40.08647,43.02458 c 4.88897,5.249 3.75637,13.65809 -2.34716,17.42652 l -31.13851,19.20844 c -6.1065,3.76358 -14.1297,1.00241 -16.62682,-5.72206 l -20.4574,-55.15084 c -1.87562,-5.07526 0.0845,-10.76929 4.68685,-13.6145 z M 164.12671,134.04396 c -14.78817,-3.50415 -17.95508,-23.13663 -5.02202,-31.11465 12.93304,-7.978048 29.05701,3.66155 25.55289,18.44971 -2.17213,9.16677 -11.36411,14.83704 -20.53087,12.66494 z M 152.42169,227.30461 58.733052,75.427536 C 55.434594,70.081844 57.095086,63.074318 62.441529,59.777098 L 81.791874,47.840444 c 5.345704,-3.298448 12.353205,-1.63797 15.650431,3.708474 L 191.1309,203.42596 c 9.8537,-4.07075 20.23866,-6.71557 30.90671,-6.67104 23.98586,0.0959 45.5822,10.12171 57.79666,29.07041 -3.11944,4.9761 -5.4398,10.41032 -6.87656,16.10486 -10.50159,43.82189 31.84293,81.79221 74.26508,66.59354 1.41422,1.70424 2.73884,3.48091 3.96846,5.32283 16.50549,26.67063 12.36006,60.87214 -6.88401,89.28284 l -28.08462,-30.14478 c -11.08706,-11.89827 -29.03139,-14.31601 -42.87216,-5.77638 l -11.50586,7.0976 c -13.80776,8.5647 -19.68943,25.65798 -14.0753,40.90562 l 14.3441,38.59741 c -34.0047,4.42502 -66.40249,-7.23987 -82.83887,-33.89413 -1.13885,-2.00736 -2.16796,-4.07505 -3.08275,-6.19395 17.53467,-16.43603 22.71243,-42.18574 12.89372,-64.12202 -9.81872,-21.93625 -32.47185,-35.22883 -56.41093,-33.10114 -11.41653,-19.38781 -10.66775,-43.13858 -0.0367,-64.5769 4.71632,-9.54642 11.73121,-17.63512 19.78381,-24.61612 z M 64.539411,110.44606 c 14.788163,3.50416 17.955062,23.13664 5.021992,31.11466 -12.933059,7.97801 -29.057016,-3.6616 -25.552845,-18.44978 2.172132,-9.16675 11.364104,-14.83699 20.530853,-12.66488 z m 25.329808,41.06172 c 14.788141,3.50417 17.955031,23.13663 5.021976,31.11465 -12.933053,7.97803 -29.057015,-3.6616 -25.552867,-18.44976 2.172134,-9.16677 11.364125,-14.83703 20.530891,-12.66489 z"
     id="path1-3"
     style="fill:#26211c;fill-opacity:1;stroke-width:0.710728"
     inkscape:transform-center-x="3.8397964"
     inkscape:transform-center-y="-7.6795921"
     inkscape:label="Instrument"
     transform="translate(3.3446314e-7,1.5029327)" /><path
     style="fill:#ffffff;fill-opacity:1;stroke:none;stroke-width:0.751466;stroke-opacity:1"
     d="m 112.82501,330.14226 v 140.27372 h 130.25417 c 12.84542,0 20.0391,-7.7251 20.0391,-20.0391 V 350.18136 c 0,-13.2007 -7.3009,-19.06267 -20.0391,-20.0391 z"
     id="path6-5"
     sodipodi:nodetypes="ccssssc"
     inkscape:label="Banner margin"
     transform="translate(3.3446314e-7,1.5029327)" /><path
     style="fill:#4a4c61;fill-opacity:1;stroke:none;stroke-width:0.751466;stroke-opacity:1"
     d="m 0.49983985,301.58654 v -20.0391 l -29.95244685,20.0391 v 100.19552 c 0,12.37401 7.665086,20.0391 20.0391031,20.0391 H 233.05964 c 12.84542,0 20.0391,-7.7251 20.0391,-20.0391 v -80.15641 c 0,-13.2007 -7.26353,-20.03911 -20.0391,-20.03911 z"
     id="path6"
     transform="translate(3.3446314e-7,40.078203)"
     sodipodi:nodetypes="cccssssssc"
     inkscape:label="Banner" /><text
     xml:space="preserve"
     style="font-size:125.244px;writing-mode:lr-tb;direction:ltr;fill:#ffffff;fill-opacity:1;stroke:none;stroke-width:0.751466;stroke-opacity:1"
     x="-18.305872"
     y="444.74063"
     id="text6"
     inkscape:label="Text"
     transform="translate(3.3446314e-7,1.5029327)"><tspan
       id="tspan6"
       style="font-style:normal;font-variant:normal;font-weight:normal;font-stretch:normal;font-size:125.244px;font-family:'Patrick Hand';-inkscape-font-specification:'Patrick Hand';fill:#ffffff;fill-opacity:1;stroke-width:0.751466"
       x="-18.305872"
       y="444.74063">sfArk</tspan></text></svg>
