<?xml version="1.0" encoding="UTF-8" standalone="no"?>
<!-- Created with Inkscape (http://www.inkscape.org/) -->

<svg
   width="56mm"
   height="56mm"
   viewBox="0 0 56 56"
   version="1.1"
   id="svg1"
   xml:space="preserve"
   inkscape:version="1.3 (0e150ed6c4, 2023-07-21)"
   sodipodi:docname="logo.svg"
   inkscape:export-filename="../../web/polyphone/images/logo_48.png"
   inkscape:export-xdpi="21.771427"
   inkscape:export-ydpi="21.771427"
   xmlns:inkscape="http://www.inkscape.org/namespaces/inkscape"
   xmlns:sodipodi="http://sodipodi.sourceforge.net/DTD/sodipodi-0.dtd"
   xmlns:xlink="http://www.w3.org/1999/xlink"
   xmlns="http://www.w3.org/2000/svg"
   xmlns:svg="http://www.w3.org/2000/svg"><sodipodi:namedview
     id="namedview1"
     pagecolor="#ffffff"
     bordercolor="#000000"
     borderopacity="0.25"
     inkscape:showpageshadow="2"
     inkscape:pageopacity="0.0"
     inkscape:pagecheckerboard="0"
     inkscape:deskcolor="#d1d1d1"
     inkscape:document-units="mm"
     inkscape:zoom="1.1523296"
     inkscape:cx="23.8647"
     inkscape:cy="57.709184"
     inkscape:window-width="2048"
     inkscape:window-height="1211"
     inkscape:window-x="0"
     inkscape:window-y="0"
     inkscape:window-maximized="1"
     inkscape:current-layer="svg1" /><defs
     id="defs1"><linearGradient
       id="linearGradient21"
       inkscape:collect="always"><stop
         style="stop-color:#81532b;stop-opacity:1;"
         offset="0"
         id="stop21" /><stop
         style="stop-color:#d2a277;stop-opacity:1;"
         offset="1"
         id="stop22" /></linearGradient><linearGradient
       id="linearGradient34"
       inkscape:collect="always"><stop
         style="stop-color:#81532b;stop-opacity:1;"
         offset="0"
         id="stop34" /><stop
         style="stop-color:#d2a277;stop-opacity:1;"
         offset="1"
         id="stop35" /></linearGradient><linearGradient
       id="linearGradient31"
       inkscape:collect="always"><stop
         style="stop-color:#ffffff;stop-opacity:0.23351681;"
         offset="0"
         id="stop31" /><stop
         style="stop-color:#ffffff;stop-opacity:0;"
         offset="0.99989998"
         id="stop32" /></linearGradient><linearGradient
       id="swatch405"><stop
         style="stop-color:#000000;stop-opacity:1;"
         offset="0"
         id="stop405" /></linearGradient><filter
       style="color-interpolation-filters:sRGB"
       inkscape:label="Feather"
       id="filter165"
       x="-0.17526922"
       y="-0.05749014"
       width="1.3505384"
       height="1.1149803"><feGaussianBlur
         stdDeviation="0.5"
         result="blur"
         id="feGaussianBlur163" /><feComposite
         in="SourceGraphic"
         in2="blur"
         operator="atop"
         result="composite1"
         id="feComposite163" /><feComposite
         in2="composite1"
         operator="in"
         result="composite2"
         id="feComposite164" /><feComposite
         in2="composite2"
         operator="in"
         result="composite3"
         id="feComposite165" /></filter><filter
       style="color-interpolation-filters:sRGB"
       inkscape:label="Feather"
       id="filter165-6"
       x="-0.18257211"
       y="-0.059885547"
       width="1.3673772"
       height="1.1202618"><feGaussianBlur
         stdDeviation="0.5"
         result="blur"
         id="feGaussianBlur163-2" /><feComposite
         in="SourceGraphic"
         in2="blur"
         operator="atop"
         result="composite1"
         id="feComposite163-9" /><feComposite
         in2="composite1"
         operator="in"
         result="composite2"
         id="feComposite164-1" /><feComposite
         in2="composite2"
         operator="in"
         result="composite3"
         id="feComposite165-2" /></filter><filter
       style="color-interpolation-filters:sRGB"
       inkscape:label="Feather"
       id="filter165-60"
       x="-0.18257211"
       y="-0.059885561"
       width="1.3673773"
       height="1.1202618"><feGaussianBlur
         stdDeviation="0.5"
         result="blur"
         id="feGaussianBlur163-6" /><feComposite
         in="SourceGraphic"
         in2="blur"
         operator="atop"
         result="composite1"
         id="feComposite163-2" /><feComposite
         in2="composite1"
         operator="in"
         result="composite2"
         id="feComposite164-6" /><feComposite
         in2="composite2"
         operator="in"
         result="composite3"
         id="feComposite165-1" /></filter><filter
       style="color-interpolation-filters:sRGB"
       inkscape:label="Feather"
       id="filter168"
       x="-0.17526922"
       y="-0.05749014"
       width="1.3505384"
       height="1.1149803"><feGaussianBlur
         stdDeviation="0.5"
         result="blur"
         id="feGaussianBlur165" /><feComposite
         in="SourceGraphic"
         in2="blur"
         operator="atop"
         result="composite1"
         id="feComposite166" /><feComposite
         in2="composite1"
         operator="in"
         result="composite2"
         id="feComposite167" /><feComposite
         in2="composite2"
         operator="in"
         result="composite3"
         id="feComposite168" /></filter><filter
       style="color-interpolation-filters:sRGB"
       inkscape:label="Feather"
       id="filter282"
       x="-0.18856901"
       y="-0.062857889"
       width="1.377138"
       height="1.1257159"><feGaussianBlur
         stdDeviation="0.55"
         result="blur"
         id="feGaussianBlur280" /><feComposite
         in="SourceGraphic"
         in2="blur"
         operator="atop"
         result="composite1"
         id="feComposite280" /><feComposite
         in2="composite1"
         operator="in"
         result="composite2"
         id="feComposite281" /><feComposite
         in2="composite2"
         operator="in"
         result="composite3"
         id="feComposite282" /></filter><filter
       style="color-interpolation-filters:sRGB"
       inkscape:label="Feather"
       id="filter307"
       x="-0.060000002"
       y="-0.022325583"
       width="1.12"
       height="1.0446512"><feGaussianBlur
         stdDeviation="0.2"
         result="blur"
         id="feGaussianBlur305" /><feComposite
         in="SourceGraphic"
         in2="blur"
         operator="atop"
         result="composite1"
         id="feComposite305" /><feComposite
         in2="composite1"
         operator="in"
         result="composite2"
         id="feComposite306" /><feComposite
         in2="composite2"
         operator="in"
         result="composite3"
         id="feComposite307" /></filter><filter
       style="color-interpolation-filters:sRGB"
       inkscape:label="Drop Shadow"
       id="filter362"
       x="-0.075144529"
       y="-0.027104015"
       width="1.1502891"
       height="1.054208"><feFlood
         result="flood"
         in="SourceGraphic"
         flood-opacity="1.000000"
         flood-color="rgb(255,255,255)"
         id="feFlood361" /><feGaussianBlur
         result="blur"
         in="SourceGraphic"
         stdDeviation="0.200000"
         id="feGaussianBlur361" /><feOffset
         result="offset"
         in="blur"
         dx="0.000000"
         dy="0.000000"
         id="feOffset361" /><feComposite
         result="comp1"
         operator="out"
         in="flood"
         in2="offset"
         id="feComposite361" /><feComposite
         result="comp2"
         operator="in"
         in="comp1"
         in2="SourceGraphic"
         id="feComposite362" /></filter><clipPath
       clipPathUnits="userSpaceOnUse"
       id="clipPath408"><use
         x="0"
         y="0"
         xlink:href="#g407"
         id="use408" /></clipPath><filter
       style="color-interpolation-filters:sRGB"
       inkscape:label="Feather"
       id="filter307-0"
       x="-0.060092196"
       y="-0.022289412"
       width="1.1201844"
       height="1.0445788"><feGaussianBlur
         stdDeviation="0.2"
         result="blur"
         id="feGaussianBlur305-2" /><feComposite
         in="SourceGraphic"
         in2="blur"
         operator="atop"
         result="composite1"
         id="feComposite305-3" /><feComposite
         in2="composite1"
         operator="in"
         result="composite2"
         id="feComposite306-7" /><feComposite
         in2="composite2"
         operator="in"
         result="composite3"
         id="feComposite307-5" /></filter><filter
       style="color-interpolation-filters:sRGB"
       inkscape:label="Feather"
       id="filter410"
       x="-0.099802372"
       y="-0.021818182"
       width="1.1996047"
       height="1.0436364"><feGaussianBlur
         stdDeviation="0.20000000000000001"
         result="blur"
         id="feGaussianBlur408" /><feComposite
         in="SourceGraphic"
         in2="blur"
         operator="atop"
         result="composite1"
         id="feComposite408" /><feComposite
         in2="composite1"
         operator="in"
         result="composite2"
         id="feComposite409" /><feComposite
         in2="composite2"
         operator="in"
         result="composite3"
         id="feComposite410" /></filter><filter
       style="color-interpolation-filters:sRGB"
       inkscape:label="Feather"
       id="filter415"
       x="-0.14117648"
       y="-0.053333335"
       width="1.2823529"
       height="1.1066667"><feGaussianBlur
         stdDeviation="0.5"
         result="blur"
         id="feGaussianBlur413" /><feComposite
         in="SourceGraphic"
         in2="blur"
         operator="atop"
         result="composite1"
         id="feComposite413" /><feComposite
         in2="composite1"
         operator="in"
         result="composite2"
         id="feComposite414" /><feComposite
         in2="composite2"
         operator="in"
         result="composite3"
         id="feComposite415" /></filter><filter
       style="color-interpolation-filters:sRGB"
       inkscape:label="Feather"
       id="filter415-9"
       x="-0.14117648"
       y="-0.053333335"
       width="1.2823529"
       height="1.1066667"><feGaussianBlur
         stdDeviation="0.5"
         result="blur"
         id="feGaussianBlur413-7" /><feComposite
         in="SourceGraphic"
         in2="blur"
         operator="atop"
         result="composite1"
         id="feComposite413-3" /><feComposite
         in2="composite1"
         operator="in"
         result="composite2"
         id="feComposite414-6" /><feComposite
         in2="composite2"
         operator="in"
         result="composite3"
         id="feComposite415-1" /></filter><filter
       style="color-interpolation-filters:sRGB"
       inkscape:label="Feather"
       id="filter418"
       x="-0.15000001"
       y="-0.054545455"
       width="1.3"
       height="1.1090909"><feGaussianBlur
         stdDeviation="0.5"
         result="blur"
         id="feGaussianBlur415" /><feComposite
         in="SourceGraphic"
         in2="blur"
         operator="atop"
         result="composite1"
         id="feComposite416" /><feComposite
         in2="composite1"
         operator="in"
         result="composite2"
         id="feComposite417" /><feComposite
         in2="composite2"
         operator="in"
         result="composite3"
         id="feComposite418" /></filter><filter
       style="color-interpolation-filters:sRGB"
       inkscape:label="Feather"
       id="filter441"
       x="-0.10666667"
       y="-0.041739132"
       width="1.2133332"
       height="1.0834783"><feGaussianBlur
         stdDeviation="0.4"
         result="blur"
         id="feGaussianBlur439" /><feComposite
         in="SourceGraphic"
         in2="blur"
         operator="atop"
         result="composite1"
         id="feComposite439" /><feComposite
         in2="composite1"
         operator="in"
         result="composite2"
         id="feComposite440" /><feComposite
         in2="composite2"
         operator="in"
         result="composite3"
         id="feComposite441" /></filter><filter
       style="color-interpolation-filters:sRGB"
       inkscape:label="Feather"
       id="filter446"
       x="-0.050526317"
       y="-0.020425532"
       width="1.1010526"
       height="1.0408511"><feGaussianBlur
         stdDeviation="0.20000000000000001"
         result="blur"
         id="feGaussianBlur444" /><feComposite
         in="SourceGraphic"
         in2="blur"
         operator="atop"
         result="composite1"
         id="feComposite444" /><feComposite
         in2="composite1"
         operator="in"
         result="composite2"
         id="feComposite445" /><feComposite
         in2="composite2"
         operator="in"
         result="composite3"
         id="feComposite446" /></filter><filter
       style="color-interpolation-filters:sRGB"
       inkscape:label="Feather"
       id="filter449"
       x="-0.050526317"
       y="-0.020425532"
       width="1.1010526"
       height="1.0408511"><feGaussianBlur
         stdDeviation="0.20000000000000001"
         result="blur"
         id="feGaussianBlur446" /><feComposite
         in="SourceGraphic"
         in2="blur"
         operator="atop"
         result="composite1"
         id="feComposite447" /><feComposite
         in2="composite1"
         operator="in"
         result="composite2"
         id="feComposite448" /><feComposite
         in2="composite2"
         operator="in"
         result="composite3"
         id="feComposite449" /></filter><filter
       style="color-interpolation-filters:sRGB"
       inkscape:label="Feather"
       id="filter452"
       x="-0.063157895"
       y="-0.025531915"
       width="1.1263158"
       height="1.0510638"><feGaussianBlur
         stdDeviation="0.25"
         result="blur"
         id="feGaussianBlur449" /><feComposite
         in="SourceGraphic"
         in2="blur"
         operator="atop"
         result="composite1"
         id="feComposite450" /><feComposite
         in2="composite1"
         operator="in"
         result="composite2"
         id="feComposite451" /><feComposite
         in2="composite2"
         operator="in"
         result="composite3"
         id="feComposite452" /></filter><filter
       style="color-interpolation-filters:sRGB"
       inkscape:label="Feather"
       id="filter455"
       x="-0.085714286"
       y="-0.028301887"
       width="1.1714286"
       height="1.0566038"><feGaussianBlur
         stdDeviation="0.25"
         result="blur"
         id="feGaussianBlur452" /><feComposite
         in="SourceGraphic"
         in2="blur"
         operator="atop"
         result="composite1"
         id="feComposite453" /><feComposite
         in2="composite1"
         operator="in"
         result="composite2"
         id="feComposite454" /><feComposite
         in2="composite2"
         operator="in"
         result="composite3"
         id="feComposite455" /></filter><clipPath
       clipPathUnits="userSpaceOnUse"
       id="clipPath456"><use
         x="0"
         y="0"
         xlink:href="#g455"
         id="use456" /></clipPath><filter
       style="color-interpolation-filters:sRGB"
       inkscape:label="Feather"
       id="filter461"
       x="-0.46438514"
       y="-0.021927689"
       width="1.9287703"
       height="1.0438554"><feGaussianBlur
         stdDeviation="0.25 0.131"
         result="blur"
         id="feGaussianBlur459" /><feComposite
         in="SourceGraphic"
         in2="blur"
         operator="atop"
         result="composite1"
         id="feComposite459" /><feComposite
         in2="composite1"
         operator="in"
         result="composite2"
         id="feComposite460" /><feComposite
         in2="composite2"
         operator="in"
         result="composite3"
         id="feComposite461" /></filter><filter
       style="color-interpolation-filters:sRGB"
       inkscape:label="Feather"
       id="filter464"
       x="-0.050863928"
       y="-0.016523936"
       width="1.1017279"
       height="1.0330479"><feGaussianBlur
         stdDeviation="0.25"
         result="blur"
         id="feGaussianBlur462" /><feComposite
         in="SourceGraphic"
         in2="blur"
         operator="atop"
         result="composite1"
         id="feComposite462" /><feComposite
         in2="composite1"
         operator="in"
         result="composite2"
         id="feComposite463" /><feComposite
         in2="composite2"
         operator="in"
         result="composite3"
         id="feComposite464" /></filter><clipPath
       clipPathUnits="userSpaceOnUse"
       id="clipPath2"><use
         x="0"
         y="0"
         xlink:href="#g1"
         id="use2" /></clipPath><clipPath
       clipPathUnits="userSpaceOnUse"
       id="clipPath22"><g
         inkscape:label="Clip"
         id="use22"><path
           id="path22"
           style="display:inline;fill:#bebebe;stroke:#7fff2d;stroke-width:0.1;stroke-linecap:round;stroke-dasharray:none"
           d="m 62.167328,29.954769 c -0.658781,0 -1.000004,0.347591 -1,0.999939 l 2.13e-4,31.999598 c 4e-6,0.612204 0.328737,1.000455 0.999939,1.000455 h 8.000028 c 0.655721,0 1.001613,-0.360916 0.999939,-1.000455 l 1.06e-4,-10.999773 c 6e-6,-0.613182 -0.345657,-1.000012 -1,-1.000012 h -1.500292 c -0.601137,0 -0.999859,-0.372564 -0.999859,-0.999939 V 30.954708 c 0,-0.634567 -0.372692,-0.999939 -0.999849,-0.999939 z"
           sodipodi:nodetypes="ssssscssssscs"
           transform="translate(-30.167329,0.0455926)" /></g></clipPath><clipPath
       clipPathUnits="userSpaceOnUse"
       id="clipPath24"><use
         x="0"
         y="0"
         xlink:href="#g23"
         id="use24" /></clipPath><filter
       style="color-interpolation-filters:sRGB"
       inkscape:label="Feather"
       id="filter28"
       x="-0.013275646"
       y="-0.048097182"
       width="1.0265512"
       height="1.0961944"><feGaussianBlur
         stdDeviation="0.25"
         result="blur"
         id="feGaussianBlur26" /><feComposite
         in="SourceGraphic"
         in2="blur"
         operator="atop"
         result="composite1"
         id="feComposite26" /><feComposite
         in2="composite1"
         operator="in"
         result="composite2"
         id="feComposite27" /><feComposite
         in2="composite2"
         operator="in"
         result="composite3"
         id="feComposite28" /></filter><filter
       style="color-interpolation-filters:sRGB"
       inkscape:label="Feather"
       id="filter31"
       x="-0.013288395"
       y="-0.051258232"
       width="1.0265768"
       height="1.1025165"><feGaussianBlur
         stdDeviation="0.25"
         result="blur"
         id="feGaussianBlur29" /><feComposite
         in="SourceGraphic"
         in2="blur"
         operator="atop"
         result="composite1"
         id="feComposite29" /><feComposite
         in2="composite1"
         operator="in"
         result="composite2"
         id="feComposite30" /><feComposite
         in2="composite2"
         operator="in"
         result="composite3"
         id="feComposite31" /></filter><radialGradient
       inkscape:collect="always"
       xlink:href="#linearGradient31"
       id="radialGradient32"
       cx="47.889034"
       cy="21.039656"
       fx="47.889034"
       fy="21.039656"
       r="22.449743"
       gradientTransform="matrix(1.9856031,0.00595991,-0.00804331,1.0396133,-56.492549,-2.5800734)"
       gradientUnits="userSpaceOnUse" /><linearGradient
       inkscape:collect="always"
       xlink:href="#linearGradient34"
       id="linearGradient35"
       x1="50.970631"
       y1="20.711826"
       x2="51.143627"
       y2="21.72921"
       gradientUnits="userSpaceOnUse" /><clipPath
       clipPathUnits="userSpaceOnUse"
       id="clipPath21"><use
         x="0"
         y="0"
         xlink:href="#g20"
         id="use21" /></clipPath><linearGradient
       inkscape:collect="always"
       xlink:href="#linearGradient21"
       id="linearGradient22"
       x1="70.45256"
       y1="29.120953"
       x2="72.080109"
       y2="30.764565"
       gradientUnits="userSpaceOnUse" /><filter
       style="color-interpolation-filters:sRGB"
       inkscape:label="Feather"
       id="filter48"
       x="-0.33763139"
       y="-0.07319521"
       width="1.6752628"
       height="1.1463904"><feGaussianBlur
         stdDeviation="1.95"
         result="blur"
         id="feGaussianBlur46" /><feComposite
         in="SourceGraphic"
         in2="blur"
         operator="atop"
         result="composite1"
         id="feComposite46" /><feComposite
         in2="composite1"
         operator="in"
         result="composite2"
         id="feComposite47" /><feComposite
         in2="composite2"
         operator="in"
         result="composite3"
         id="feComposite48" /></filter><filter
       style="color-interpolation-filters:sRGB"
       inkscape:label="Feather"
       id="filter63"
       x="-0.012783195"
       y="-0.02875835"
       width="1.0255664"
       height="1.0575167"><feGaussianBlur
         stdDeviation="0.3"
         result="blur"
         id="feGaussianBlur61" /><feComposite
         in="SourceGraphic"
         in2="blur"
         operator="atop"
         result="composite1"
         id="feComposite61" /><feComposite
         in2="composite1"
         operator="in"
         result="composite2"
         id="feComposite62" /><feComposite
         in2="composite2"
         operator="in"
         result="composite3"
         id="feComposite63" /></filter><filter
       style="color-interpolation-filters:sRGB"
       inkscape:label="Feather"
       id="filter70"
       x="-0.13874551"
       y="-0.054580003"
       width="1.277491"
       height="1.10916"><feGaussianBlur
         stdDeviation="0.5"
         result="blur"
         id="feGaussianBlur68" /><feComposite
         in="SourceGraphic"
         in2="blur"
         operator="atop"
         result="composite1"
         id="feComposite68" /><feComposite
         in2="composite1"
         operator="in"
         result="composite2"
         id="feComposite69" /><feComposite
         in2="composite2"
         operator="in"
         result="composite3"
         id="feComposite70" /></filter><filter
       style="color-interpolation-filters:sRGB"
       inkscape:label="Feather"
       id="filter80"
       x="-0.084426286"
       y="-0.033697637"
       width="1.1688526"
       height="1.0673953"><feGaussianBlur
         stdDeviation="0.3"
         result="blur"
         id="feGaussianBlur78" /><feComposite
         in="SourceGraphic"
         in2="blur"
         operator="atop"
         result="composite1"
         id="feComposite78" /><feComposite
         in2="composite1"
         operator="in"
         result="composite2"
         id="feComposite79" /><feComposite
         in2="composite2"
         operator="in"
         result="composite3"
         id="feComposite80" /></filter><filter
       height="1.2598605"
       width="1.3229662"
       y="-0.12993006"
       x="-0.16148299"
       style="color-interpolation-filters:sRGB"
       inkscape:label="Blur"
       id="filter81"><feGaussianBlur
         stdDeviation="1.1 1.1"
         result="blur"
         id="feGaussianBlur81" /><feColorMatrix
         values="1 0 0 0 0 0 1 0 0 0 0 0 1 0 0 0 0 0 50 0 "
         result="colormatrix"
         id="feColorMatrix81" /><feComposite
         in="colormatrix"
         in2="SourceGraphic"
         operator="in"
         id="feComposite81" /></filter><filter
       style="color-interpolation-filters:sRGB"
       inkscape:label="Feather"
       id="filter84"
       x="-0.0403447"
       y="-0.032463647"
       width="1.0806894"
       height="1.0649273"><feGaussianBlur
         stdDeviation="0.3"
         result="blur"
         id="feGaussianBlur82" /><feComposite
         in="SourceGraphic"
         in2="blur"
         operator="atop"
         result="composite1"
         id="feComposite82" /><feComposite
         in2="composite1"
         operator="in"
         result="composite2"
         id="feComposite83" /><feComposite
         in2="composite2"
         operator="in"
         result="composite3"
         id="feComposite84" /></filter><filter
       style="color-interpolation-filters:sRGB;"
       inkscape:label="Feather"
       id="filter9"
       x="-0.27678135"
       y="-0.055836576"
       width="1.5535627"
       height="1.1116732"><feGaussianBlur
         stdDeviation="0.5"
         result="blur"
         id="feGaussianBlur7" /><feComposite
         in="SourceGraphic"
         in2="blur"
         operator="atop"
         result="composite1"
         id="feComposite7" /><feComposite
         in2="composite1"
         operator="in"
         result="composite2"
         id="feComposite8" /><feComposite
         in2="composite2"
         operator="in"
         result="composite3"
         id="feComposite9" /></filter></defs><rect
     style="display:none;fill:#000000;fill-opacity:0.811879;stroke:none;stroke-width:1.3;stroke-linecap:round"
     id="rect9"
     width="94.397469"
     height="85.050194"
     x="-9.5751333"
     y="-9.0079765"
     rx="1.1262971"
     ry="0.75653154" /><rect
     style="display:inline;fill:#81532b;fill-opacity:1;stroke:none;stroke-width:1;stroke-linecap:round;stroke-dasharray:none;stroke-opacity:1"
     id="dessous"
     width="19.293121"
     height="34.056091"
     x="29.204906"
     y="20.916731"
     rx="1.1262971"
     ry="0.75653154"
     inkscape:label="dessous" /><g
     id="Cadre"
     clip-path="url(#clipPath21)"
     style="display:inline"
     inkscape:label="Cadre"
     transform="translate(-24.000001,-8)"><g
       inkscape:label="Clip"
       id="g20"
       style="display:inline"><path
         id="path2"
         style="display:inline;fill:#c17f44;fill-opacity:1;stroke:none;stroke-width:0.1;stroke-linecap:round;stroke-linejoin:round;stroke-dasharray:none;stroke-opacity:1"
         d="m 25,8 c -0.471404,0 -0.999999,0.528596 -0.999999,1 v 20 c 0,0.634064 0.391322,1 0.999999,1 h 45.1 c 0.611705,0 0.9,0.426208 0.9,1 v 32 c 0,0.631801 0.303143,1 1,1 h 3 c 3.033918,0 5,-2.077046 5,-5 l 10e-7,-46 c 0,-2.844724 -1.90096,-5 -5.000001,-5 z"
         sodipodi:nodetypes="sssssssssssss"
         inkscape:label="fond" /></g><path
       id="rect22"
       style="fill:#000000;fill-opacity:0.722372;stroke:none;stroke-width:1;stroke-linecap:round;stroke-dasharray:none;stroke-opacity:1;filter:url(#filter48)"
       d="M 75.185075,4.348055 V 58.53288 l -2.190564,2.241705 h -2.190564 c -1.660746,0 -2.081546,6.342699 0,6.567041 L 83.25745,67.320439 V 4.348055 c 0,-1.0707876 -7.729517,-1.4361466 -8.072375,0 z"
       sodipodi:nodetypes="sccsccss"
       inkscape:label="ombre" /><path
       id="rect48"
       style="fill:#ffffff;fill-opacity:0.753104;stroke:none;stroke-width:1;stroke-linecap:round;stroke-dasharray:none;stroke-opacity:1;filter:url(#filter63)"
       d="M 22.113601,5.6185167 V 29.851663 c 0.193924,1.137638 2.608626,0.932665 2.608626,0 V 8.6663927 h 51.80321 c 0.571772,0 1.921024,0.8929573 1.912068,0.473935 L 78.377865,6.350255 c -0.009,-0.4190224 -0.502578,-0.756543 -1.126546,-0.756543 z"
       sodipodi:nodetypes="ccscssscc"
       inkscape:label="lumière" /><path
       style="fill:url(#linearGradient22);stroke:none;stroke-width:1;stroke-linecap:round;stroke-dasharray:none;stroke-opacity:1"
       d="M 24,28 23.98148,30.2 70.163738,30.932814 71,64.143837 c 0,0 1,-1.570531 1,-4.143837 V 30 c 0,-0.499023 -0.475516,-1 -1,-1 H 25 c -0.909834,0 -1,-1 -1,-1 z"
       id="path21"
       sodipodi:nodetypes="ccccssssc"
       inkscape:label="épaisseur" /></g><g
     id="g24"
     clip-path="url(#clipPath24)"
     inkscape:label="Graphique"
     style="display:inline;stroke-width:0.789222"
     transform="matrix(1,0,0,1.605468,-24.000001,-23.681621)"><g
       inkscape:label="Clip"
       id="g23"
       style="stroke-width:0.789222"><path
         id="rect23"
         style="display:inline;fill:#000000;fill-opacity:1;stroke-width:0.0789222;stroke-linecap:round"
         d="m 29,17.242088 h 42 c 0.623969,0 1,0.203753 1,0.622872 v 6.851584 c 0,0.419119 -0.376031,0.622872 -1,0.622872 H 29 c -0.623969,0 -1,-0.203753 -1,-0.622872 V 17.86496 c 0,-0.419119 0.376031,-0.622872 1,-0.622872 z"
         sodipodi:nodetypes="sssssssss"
         inkscape:label="fond" /></g><path
       id="path3-8"
       style="display:inline;fill:none;fill-opacity:1;stroke:#508db9;stroke-width:1.18383;stroke-linecap:round;stroke-dasharray:none;stroke-opacity:1"
       d="m 35.000001,19.733574 v 3.114356 m -2.5,-2.180049 v 1.245742 m -2.500189,-0.622871 h 3.77e-4 m 14.999812,-1.245743 v 2.491486 m -2.5,-2.18005 v 1.868614 m -2.5,-2.802921 v 3.737228 m -2.5,-4.360099 v 4.98297 m 22.5,-4.360099 v 3.737228 m -2.5,-4.360099 v 4.98297 m -2.5,-4.048663 v 3.114356 m -2.5,-2.180049 v 1.245742 M 50.00019,21.290752 v 0 m -2.500189,-0.311436 v 0.622872 m 22.5,-0.311436 v 0 m -2.5,-0.311436 v 0.622872 m -2.5,-1.557179 v 2.491486 m -2.5,-2.18005 v 1.868614"
       inkscape:label="onde"
       sodipodi:nodetypes="cccccccccccccccccccccccccccccccccc" /><rect
       style="display:inline;stroke-width:0.0789219;fill:url(#radialGradient32);stroke:none;stroke-linecap:round"
       id="rect18"
       width="44.158504"
       height="10.027789"
       x="27.046024"
       y="16.388315"
       rx="1.1262972"
       ry="0.4712218"
       inkscape:label="éclat" /><path
       id="path1"
       style="fill:url(#linearGradient35);fill-opacity:1;stroke:none;stroke-width:0.0789222;stroke-linecap:round"
       inkscape:label="cadre"
       d="M 26.637651,16.619217 26.40769,26.369454 28.310417,26.817489 72.5,26.586495 V 16.619217 Z M 71.5,24.405109 c 0,0.528744 -0.197233,0.623796 -1,0.622871 h -41 c -0.816606,0 -0.999979,-0.108542 -0.999979,-0.622871 v -6.228714 c 0,-0.490979 0.237726,-0.622871 0.999939,-0.622871 H 70.5 c 0.78894,0 1,0.125176 1,0.622871 z"
       sodipodi:nodetypes="ccccccccssssccc" /></g><g
     id="g456"
     clip-path="url(#clipPath456)"
     inkscape:label="Touche blanche 3"
     transform="translate(-24.000001,-8)"><g
       inkscape:label="Clip"
       id="g455"><path
         id="rect144"
         style="display:inline;fill:#f2f1ee;fill-opacity:1;stroke:none;stroke-width:0.1;stroke-linecap:round;stroke-dasharray:none"
         d="m 65.5,30 c -0.658781,0 -1,0.347651 -1,1 v 19 c 0.01559,0.621978 -0.347427,0.999988 -1,0.999988 H 62 c -0.646859,0 -1,0.381832 -1,1.000012 v 11 c 0,0.612204 0.328798,1 1,1 h 8 c 0.655721,0 1,-0.360458 1,-1 V 31 c 0,-0.785583 -0.236556,-1 -1,-1 z"
         sodipodi:nodetypes="sscssssssssss"
         inkscape:label="fond" /></g><path
       id="rect461"
       style="display:inline;fill:#000000;fill-opacity:0.787627;stroke:none;stroke-width:0.0977119;stroke-linecap:round;stroke-linejoin:miter;stroke-dasharray:none;stroke-opacity:1;filter:url(#filter464)"
       d="m 71.104187,28.630294 c -0.606388,0 -1.094507,0.337425 -1.094507,0.756543 v 33.76073 h -8.480619 c -0.623968,0 -1.126546,0.337425 -1.126546,0.756543 v 0.280603 c 0,0.419118 0.502578,0.756543 1.126546,0.756543 h 9.294006 c 0.294127,0 0.560481,-0.07579 0.760677,-0.198955 0.363556,-0.122749 0.61495,-0.377984 0.61495,-0.677478 V 29.386837 c 0,-0.419118 -0.488119,-0.756543 -1.094507,-0.756543 z"
       inkscape:label="ombre"
       transform="matrix(1.0383268,0,0,1.0087207,-2.2920378,-0.24444349)"
       sodipodi:nodetypes="sscssssscsss" /><path
       id="rect458"
       style="fill:#ffffff;fill-opacity:0.951362;stroke-width:0.10643;stroke-linecap:round;filter:url(#filter461)"
       d="m 61.227715,50.529522 c 0.357892,0 0.646015,0.337413 0.646015,0.756532 v 12.824972 c 0,0.419118 -0.288123,0.756532 -0.646015,0.756532 -0.357893,0 -0.646016,-0.337414 -0.646016,-0.756532 V 51.286054 c 0,-0.419119 0.288123,-0.756532 0.646016,-0.756532 z"
       inkscape:label="lumière"
       transform="matrix(0.91681386,0,0,0.96292541,4.9896458,1.8511164)" /></g><g
     id="g2"
     clip-path="url(#clipPath2)"
     inkscape:label="Touche blanche 2"
     transform="translate(-24.000001,-8)"><g
       inkscape:label="Clip"
       id="g1"><path
         id="path464"
         style="display:inline;fill:#f2f1ee;fill-opacity:1;stroke:none;stroke-width:0.1;stroke-linecap:round;stroke-dasharray:none"
         d="m 65.667525,29.954769 c -0.658781,0 -0.999939,0.347591 -0.999939,0.999939 v 18.999874 c 0.01559,0.621978 -0.347367,0.999939 -0.999939,0.999939 h -1.500094 c -0.641964,0 -1.000012,0.374554 -1.000012,1.000012 v 10.999773 c 0,0.612204 0.328737,1.000455 0.999939,1.000455 h 8.000028 c 0.655721,0 1.001613,-0.360916 0.999939,-1.000455 l 1.06e-4,-10.999773 c 6e-6,-0.613182 -0.345657,-1.000012 -1,-1.000012 h -1.500292 c -0.601137,0 -0.999859,-0.372564 -0.999859,-0.999939 V 30.954708 c 0,-0.634567 -0.372692,-0.999939 -0.999849,-0.999939 z"
         sodipodi:nodetypes="sscsssssscssssscs"
         transform="translate(-10.167553,0.0454666)"
         inkscape:label="fond" /></g><path
       id="path466"
       style="display:inline;fill:#000000;fill-opacity:0.787627;stroke:none;stroke-width:0.0969243;stroke-linecap:round;stroke-linejoin:miter;stroke-dasharray:none;stroke-opacity:1;filter:url(#filter464)"
       d="m 71.104187,28.630294 c -0.606388,0 -1.094507,0.337425 -1.094507,0.756543 v 33.76073 h -8.480619 c -0.623968,0 -1.126546,0.337425 -1.126546,0.756543 v 0.280603 c 0,0.419118 0.502578,0.756543 1.126546,0.756543 h 9.294006 c 0.294127,0 0.560481,-0.07579 0.760677,-0.198955 0.363556,-0.122749 0.61495,-0.377984 0.61495,-0.677478 V 29.386837 c 0,-0.419118 -0.488119,-0.756543 -1.094507,-0.756543 z"
       inkscape:label="ombre"
       transform="matrix(1.055269,0,0,1.0087207,-13.472774,-0.19897689)" /><path
       id="path467"
       style="fill:#ffffff;fill-opacity:0.951362;stroke-width:0.102735;stroke-linecap:round;filter:url(#filter461)"
       inkscape:label="lumière"
       d="m 64.039026,27.884887 -1.179972,21.909456 -2.740453,0.350502 0.01416,1.740249 0.449155,-0.03901 v 12.264775 c 0,0.419117 0.288021,0.756727 0.645914,0.756727 0.357891,0 0.645913,-0.33761 0.645913,-0.756727 v -12.37678 c 0,0 2.040427,0.07257 2.612084,-0.268723 0.571657,-0.341295 0.79765,-0.893335 0.794146,-1.362553 l -0.07998,-20.850424 z"
       transform="matrix(1.0216665,0,0,0.92736988,-11.332228,3.7478607)"
       sodipodi:nodetypes="cccccsssczscc" /></g><g
     id="g73"
     clip-path="url(#clipPath2)"
     inkscape:label="Touche blanche 1"
     transform="rotate(20.09168,59.869781,-71.271516)"><g
       inkscape:label="Clip"
       id="g71"><path
         id="path71"
         style="display:inline;fill:#f2f1ee;fill-opacity:1;stroke:none;stroke-width:0.1;stroke-linecap:round;stroke-dasharray:none"
         d="m 65.667525,29.954769 c -0.658781,0 -0.999939,0.347591 -0.999939,0.999939 v 18.999874 c 0.01559,0.621978 -0.347367,0.999939 -0.999939,0.999939 h -1.500094 c -0.641964,0 -1.000012,0.374554 -1.000012,1.000012 v 10.999773 c 0,0.612204 0.328737,1.000455 0.999939,1.000455 h 8.000028 c 0.655721,0 1.001613,-0.360916 0.999939,-1.000455 l 1.06e-4,-10.999773 c 6e-6,-0.613182 -0.345657,-1.000012 -1,-1.000012 h -1.500292 c -0.601137,0 -0.999859,-0.372564 -0.999859,-0.999939 V 30.954708 c 0,-0.634567 -0.372692,-0.999939 -0.999849,-0.999939 z"
         sodipodi:nodetypes="sscsssssscssssscs"
         transform="translate(-10.167553,0.0454666)"
         inkscape:label="fond" /></g><path
       style="fill:#000000;fill-opacity:0.721867;stroke:none;stroke-width:1;stroke-linecap:round;stroke-dasharray:none;stroke-opacity:1;filter:url(#filter80)"
       d="M 43.952918,29.546612 38.106587,49.57135 40.603902,48.714321 46.634737,28.204866 Z"
       id="path74"
       transform="rotate(-16.416511,53.780851,-14.592426)"
       inkscape:label="ombre 2"
       sodipodi:nodetypes="ccccc" /><path
       id="path72"
       style="display:inline;fill:#000000;fill-opacity:0.787627;stroke:none;stroke-width:0.0969243;stroke-linecap:round;stroke-linejoin:miter;stroke-dasharray:none;stroke-opacity:1;filter:url(#filter464)"
       d="m 71.104187,28.630294 c -0.606388,0 -1.094507,0.337425 -1.094507,0.756543 v 33.76073 h -8.480619 c -0.623968,0 -1.126546,0.337425 -1.126546,0.756543 v 0.280603 c 0,0.419118 0.502578,0.756543 1.126546,0.756543 h 9.294006 c 0.294127,0 0.560481,-0.07579 0.760677,-0.198955 0.363556,-0.122749 0.61495,-0.377984 0.61495,-0.677478 V 29.386837 c 0,-0.419118 -0.488119,-0.756543 -1.094507,-0.756543 z"
       inkscape:label="ombre"
       transform="matrix(1.055269,0,0,1.0087207,-13.472774,-0.19897689)" /><path
       id="path73"
       style="fill:#ffffff;fill-opacity:0.951362;stroke-width:0.102735;stroke-linecap:round;filter:url(#filter461)"
       inkscape:label="lumière"
       d="m 64.039026,27.884887 -1.179972,21.909456 -2.740453,0.350502 0.01416,1.740249 0.449155,-0.03901 v 12.264775 c 0,0.419117 0.288021,0.756727 0.645914,0.756727 0.357891,0 0.645913,-0.33761 0.645913,-0.756727 v -12.37678 c 0,0 2.040427,0.07257 2.612084,-0.268723 0.571657,-0.341295 0.79765,-0.893335 0.794146,-1.362553 l -0.07077,-21.009659 1.477568,-0.162637 0.942317,-0.917257 z"
       transform="matrix(1.0216665,0,0,0.92736988,-11.332228,3.7478607)"
       sodipodi:nodetypes="cccccsssczscccc" /></g><rect
     style="fill:#000000;fill-opacity:0.814421;stroke:none;stroke-width:1;stroke-linecap:round;stroke-dasharray:none;stroke-opacity:1;filter:url(#filter70)"
     id="rect64"
     width="8.6489286"
     height="21.986074"
     x="32.68301"
     y="21.770964"
     rx="1.1262971"
     ry="0.75653154"
     inkscape:label="Ombre projetée" /><rect
     style="fill:#000000;fill-opacity:0.811879;stroke:none;stroke-width:1.26997;stroke-linecap:round;filter:url(#filter9)"
     id="rect7"
     width="4.3355522"
     height="21.491289"
     x="27.032043"
     y="22.405336"
     rx="1.1071043"
     ry="0.73449212"
     transform="matrix(1.0173361,0,0,1.0300063,-0.44782608,-1.3531831)"
     inkscape:label="Ombre projetée 1" /><g
     id="g408"
     clip-path="url(#clipPath408)"
     style="display:inline;fill:none;stroke:none;stroke-width:0.1;stroke-dasharray:none;stroke-opacity:1"
     inkscape:label="Touche noire 3"
     transform="translate(-24.000001,-8)"><g
       inkscape:label="Clip"
       id="g407"
       style="display:inline;fill:none;stroke:none;stroke-width:0.1;stroke-dasharray:none;stroke-opacity:1"><path
         id="path407"
         style="display:inline;fill:#454238;fill-opacity:1;stroke:none;stroke-width:0.1;stroke-linecap:round;stroke-dasharray:none;stroke-opacity:1"
         d="m 58.5,30 h 5 c 0.592393,0 1,0.38537 1,1 v 19 c 0,0.69244 -0.249905,1 -1,1 h -5 c -0.644947,0 -1,-0.330975 -1,-1 V 31 c 0,-0.634568 0.379759,-1 1,-1 z"
         sodipodi:nodetypes="sssssssss"
         inkscape:label="fond" /></g><path
       id="lumiere"
       style="display:inline;fill:#ffffff;fill-opacity:0.723161;stroke:none;stroke-width:0.1;stroke-linecap:round;stroke-linejoin:miter;stroke-dasharray:none;stroke-opacity:1;filter:url(#filter455)"
       d="M 58.5,49.9 V 30.8 h 5 l 1,-1 h -7 V 51 Z"
       sodipodi:nodetypes="ccccccc"
       inkscape:label="lumière" /><path
       id="ombre"
       style="display:inline;fill:#000000;fill-opacity:0.833214;stroke:none;stroke-width:0.1;stroke-linecap:round;stroke-linejoin:miter;stroke-dasharray:none;stroke-opacity:1;filter:url(#filter452)"
       d="M 63.5,30.8 V 50 h -5 L 56,52 h 9.5 V 28.5 Z"
       sodipodi:nodetypes="ccccccc" /><path
       style="display:inline;fill:#ffffff;fill-opacity:0.951742;stroke:none;stroke-width:0.1;stroke-linecap:round;stroke-linejoin:miter;stroke-dasharray:none;stroke-opacity:1;filter:url(#filter410)"
       d="m 63,29.5 c 0,0 1.2,0.654741 1.2,1.3 V 50.144578 C 64.2,50.602091 64.102018,50.7 63.648278,50.7 H 58.31705 C 57.875715,50.7 57.8,50.636382 57.8,50.155405 V 30.8 c 0,-0.511356 1.2,-1.3 1.2,-1.3 l -2,0.5 -4e-6,19.5 c 0,1.38157 0.66738,2 2,2 H 63 c 1.29442,0 2,-0.72558 2,-2 V 30 Z"
       id="reflexion"
       sodipodi:nodetypes="ccccccscccccccc"
       inkscape:label="réflexion" /></g><g
     id="g6"
     clip-path="url(#clipPath408)"
     style="display:inline;fill:none;stroke:none;stroke-width:0.1;stroke-dasharray:none;stroke-opacity:1"
     inkscape:label="Touche noire 2"
     transform="translate(-33.999969,-7.9998252)"><g
       inkscape:label="Clip"
       id="g3"
       style="display:inline;fill:none;stroke:none;stroke-width:0.1;stroke-dasharray:none;stroke-opacity:1"><path
         id="path7"
         style="display:inline;fill:#454238;fill-opacity:1;stroke:none;stroke-width:0.1;stroke-linecap:round;stroke-dasharray:none;stroke-opacity:1"
         d="m 58.5,30 h 5 c 0.592393,0 1,0.38537 1,1 v 19 c 0,0.69244 -0.249905,1 -1,1 h -5 c -0.644947,0 -1,-0.330975 -1,-1 V 31 c 0,-0.634568 0.379759,-1 1,-1 z"
         sodipodi:nodetypes="sssssssss"
         inkscape:label="fond" /></g><path
       id="path4"
       style="display:inline;fill:#ffffff;fill-opacity:0.723161;stroke:none;stroke-width:0.1;stroke-linecap:round;stroke-linejoin:miter;stroke-dasharray:none;stroke-opacity:1;filter:url(#filter455)"
       d="M 58.456489,50.124461 58.5,30.8 h 5 l 1,-1 -6.67042,-0.0047 -0.762365,0.496636 0.05158,20.896412 z"
       sodipodi:nodetypes="cccccccc"
       inkscape:label="lumière" /><path
       id="path5"
       style="display:inline;fill:#000000;fill-opacity:0.833214;stroke:none;stroke-width:0.1;stroke-linecap:round;stroke-linejoin:miter;stroke-dasharray:none;stroke-opacity:1;filter:url(#filter452)"
       d="M 63.5,30.8 V 50 h -5 L 56,52 h 9.5 V 28.5 Z"
       sodipodi:nodetypes="ccccccc"
       inkscape:label="ombre" /><path
       style="display:inline;fill:#ffffff;fill-opacity:0.951742;stroke:none;stroke-width:0.1;stroke-linecap:round;stroke-linejoin:miter;stroke-dasharray:none;stroke-opacity:1;filter:url(#filter410)"
       d="m 63,29.5 c 0,0 1.2,0.654741 1.2,1.3 V 50.144578 C 64.2,50.602091 64.102018,50.7 63.648278,50.7 l -2.495287,0.09659 -0.962496,0.3818 L 63,51.5 c 1.372796,-0.02822 2,-0.72558 2,-2 V 30 Z"
       id="path6"
       sodipodi:nodetypes="cccccccccc"
       inkscape:label="réflexion" /></g><g
     id="g16"
     clip-path="url(#clipPath408)"
     style="display:inline;fill:none;stroke:none;stroke-width:0.1;stroke-dasharray:none;stroke-opacity:1"
     inkscape:label="Touche noire 1"
     transform="rotate(37.619493,52.794526,-40.099588)"><g
       inkscape:label="Clip"
       id="g12"
       style="display:inline;fill:none;stroke:none;stroke-width:0.1;stroke-dasharray:none;stroke-opacity:1"><path
         id="path12"
         style="display:inline;fill:#454238;fill-opacity:1;stroke:none;stroke-width:0.1;stroke-linecap:round;stroke-dasharray:none;stroke-opacity:1"
         d="m 58.5,30 h 5 c 0.592393,0 1,0.38537 1,1 v 19 c 0,0.647672 -0.371192,1 -1,1 h -5 c -0.601138,0 -1,-0.372625 -1,-1 V 31 c 0,-0.634568 0.379759,-1 1,-1 z"
         sodipodi:nodetypes="sssssssss"
         inkscape:label="fond" /></g><path
       id="path14"
       style="display:inline;fill:#ffffff;fill-opacity:0.721867;stroke:none;stroke-width:0.1;stroke-linecap:round;stroke-linejoin:miter;stroke-dasharray:none;stroke-opacity:1;filter:url(#filter455)"
       d="m 58.372606,50.027266 0.01029,-19.1927 5.451842,-0.07242 1.05453,-1.001804 -6.978394,0.09845 -0.657033,0.818376 -0.09398,20.534634 z"
       sodipodi:nodetypes="cccccccc"
       inkscape:label="lumière" /><path
       id="path15"
       style="display:inline;fill:#000000;fill-opacity:0.833214;stroke:none;stroke-width:0.1;stroke-linecap:round;stroke-linejoin:miter;stroke-dasharray:none;stroke-opacity:1;filter:url(#filter452)"
       d="M 63.5,30.8 V 50 h -5 L 56,52 h 9.5 V 28.5 Z"
       sodipodi:nodetypes="ccccccc"
       inkscape:label="ombre" /></g></svg>
