<svg xmlns="http://www.w3.org/2000/svg" viewBox="0 0 416 416">
  <path style="fill:currentColor"
    d="m 152,0 c -8.832,0 -16,7.168 -16,16 V 301.12 C 122.592,292.992 106.08,288 88,288 43.904,288 8,316.704 8,352 c 0,35.296 35.904,64 80,64 44.096,0 80,-28.704 80,-64 V 16 C 168,7.168 160.832,0 152,0 Z" />
  <g transform="matrix(1.2370493,0,0,1.2370493,187.71258,295.20769)">
    <path style="fill:currentColor"
      d="m 166.59322,-128.59316 c 0,5.64397 -4.52608,10.22458 -10.22458,10.22458 h -44.68821 v 44.347394 c 0,5.643966 -4.52608,10.224576 -10.22458,10.224576 H 68.123734 c -5.6167,0 -10.224576,-4.58061 -10.224576,-10.224576 V -118.36858 H 13.224576 C 7.6078757,-118.36858 3,-122.94919 3,-128.59316 v -33.68657 c 0,-5.6576 4.6078757,-10.22458 10.224576,-10.22458 h 44.660949 v -44.66094 c 0,-5.6576 4.607876,-10.22458 10.224577,-10.22458 h 33.332118 c 5.6985,0 10.22458,4.56698 10.22458,10.22458 v 44.66094 h 44.68821 c 5.6985,0 10.22458,4.56698 10.22458,10.22458 z m 0,136.3685837 C 166.59322,13.41939 162.06714,18 156.36864,18 H 13.224576 C 7.6078757,18 3,13.41939 3,7.7754237 V -12.673729 c 0,-5.657599 4.6078757,-10.224576 10.224576,-10.224576 H 156.36864 c 5.6985,0 10.22458,4.566977 10.22458,10.224576 z" />
  </g>
</svg>