<?xml version="1.0" encoding="UTF-8" standalone="no"?>
<svg
   xmlns:svg="http://www.w3.org/2000/svg"
   xmlns="http://www.w3.org/2000/svg"
   height="552"
   id="svg1"
   width="574"
   version="1.0">
  <g id="layer1" transform="translate(-65.268222,-213.34582)">
    <path
       d="m 631.49659,500.43332 c 0,15.14484 -5.8311,30.2686 -17.4375,41.875 -23.21281,23.2128 -60.56846,23.21281 -83.78125,0 l -118.8125,-118.78125 0,274.90625 c 0,32.82787 -26.45339,59.24999 -59.28125,59.24999 -32.82787,0 -59.25001,-26.42212 -59.25,-59.24999 l 0,-274.9375 -118.8125,118.8125 c -23.21279,23.2128 -60.56843,23.21283 -83.781246,0 -23.21283,-23.21282 -23.21283,-60.56844 0,-83.78125 L 310.30909,238.55832 c 23.21282,-23.21284 60.56846,-23.21281 83.78125,0 l 219.96875,219.96875 c 11.60641,11.60641 17.4375,26.76141 17.4375,41.90625 z"
       id="rect1061"
       style="fill:#000000;fill-opacity:1;fill-rule:evenodd;stroke:#888888;stroke-width:40;stroke-linecap:butt;stroke-linejoin:miter;stroke-miterlimit:4;stroke-opacity:1;stroke-dashoffset:0"/>
  </g>
</svg>
