<?xml version="1.0" encoding="UTF-8" standalone="no"?>
<svg
   xmlns:svg="http://www.w3.org/2000/svg"
   xmlns="http://www.w3.org/2000/svg"
   version="1.0"
   width="250"
   height="248"
   id="svg2">
  <defs
     id="defs4" />
  <g
     id="layer1"
     transform="matrix(1,0,0,1.0430719,-75.648647,-71.678597)">
    <path
       d="m 200.30535,69.729172 c 4.90509,0 36.20174,71.793008 40.17005,74.676148 3.9683,2.88314 81.91871,10.46277 83.43447,15.1278 1.51575,4.66502 -57.09226,56.61516 -58.60801,61.28019 -1.51576,4.66502 15.36358,81.14249 11.39528,84.02563 -3.96831,2.88315 -71.4867,-36.80291 -76.3918,-36.80291 -4.90509,0 -72.42349,39.68605 -76.39179,36.80291 -3.96831,-2.88314 12.91104,-79.36062 11.39528,-84.02564 -1.51576,-4.66502 -60.123764,-56.61517 -58.608006,-61.28019 1.515757,-4.66502 79.466166,-12.24465 83.434466,-15.12779 3.96831,-2.88314 35.26496,-74.676148 40.17006,-74.676148 z"
       style="fill:#ffffff;fill-opacity:1;stroke:#888888;stroke-width:20;stroke-linecap:round;stroke-miterlimit:4;stroke-opacity:1;stroke-dasharray:none"
       id="path2160"/>
  </g>
</svg>
