<svg xmlns="http://www.w3.org/2000/svg" viewBox="0 0 512 512">
  <path style="fill:currentColor"
    d="M 128,496 V 160 h 16 c 8.8,0 16,-7.2 16,-16 v -32 c 0,-8.8 -7.2,-16 -16,-16 H 128 V 16 C 128,7.2 120.8,0 112,0 H 80 C 71.2,0 64,7.2 64,16 V 96 H 48 c -8.8,0 -16,7.2 -16,16 v 32 c 0,8.8 7.2,16 16,16 h 16 v 336 c 0,8.8 7.2,16 16,16 h 32 c 8.8,0 16,-7.2 16,-16 z m 160,0 v -80 h 16 c 8.8,0 16,-7.2 16,-16 v -32 c 0,-8.8 -7.2,-16 -16,-16 H 288 V 16 C 288,7.2 280.8,0 272,0 h -32 c -8.8,0 -16,7.2 -16,16 v 336 h -16 c -8.8,0 -16,7.2 -16,16 v 32 c 0,8.8 7.2,16 16,16 h 16 v 80 c 0,8.8 7.2,16 16,16 h 32 c 8.8,0 16,-7.2 16,-16 z m 160,0 V 288 h 16 c 8.8,0 16,-7.2 16,-16 v -32 c 0,-8.8 -7.2,-16 -16,-16 H 448 V 16 C 448,7.2 440.8,0 432,0 h -32 c -8.8,0 -16,7.2 -16,16 v 208 h -16 c -8.8,0 -16,7.2 -16,16 v 32 c 0,8.8 7.2,16 16,16 h 16 v 208 c 0,8.8 7.2,16 16,16 h 32 c 8.8,0 16,-7.2 16,-16 z" />
</svg>
