<svg xmlns="http://www.w3.org/2000/svg" viewBox="0 0 512 512">
  <path style="fill:currentColor"
    d="M 227.29606,256 60.876062,89.57 c -4.69,-4.69 -4.69,-12.29 0,-16.97 32.8,-32.8 85.989998,-32.8 118.789998,0 l 115.51,115.52 24.86,-24.86 c -4.31,-10.92 -6.68,-22.81 -6.68,-35.26 0,-53.02 42.98,-96 96,-96 53.02,0 96,42.98 96,96 0,53.02 -42.98,96 -96,96 -4.54,0 -8.99,-0.32 -13.36,-0.93 l -32.93,32.93 32.93,32.93 c 4.37,-0.61 8.83,-0.93 13.36,-0.93 53.02,0 96,42.98 96,96 0,53.02 -42.98,96 -96,96 -53.02,0 -96,-42.98 -96,-96 0,-12.45 2.37,-24.34 6.68,-35.26 l -24.86,-24.86 -115.51,115.52 c -32.8,32.8 -85.989998,32.8 -118.789998,0 -4.69,-4.68 -4.69,-12.28 0,-16.97 z m 182.06,-96 c 17.64,0 32,-14.36 32,-32 0,-17.64 -14.36,-32 -32,-32 -17.64,0 -32,14.36 -32,32 0,17.64 14.36,32 32,32 z m 0,256 c 17.64,0 32,-14.36 32,-32 0,-17.64 -14.36,-32 -32,-32 -17.64,0 -32,14.36 -32,32 0,17.64 14.36,32 32,32 z" />
  <path style="fill:none;stroke:currentColor;stroke-width:50;stroke-linecap:round;stroke-dasharray:30,70;stroke-opacity:1" d="M 155,256 H 25" />
</svg>
