<svg xmlns="http://www.w3.org/2000/svg" viewBox="0 0 128 128">
  <path style="fill:none;stroke:currentColor;stroke-width:1.93266249" d="M 83.993712,99.967215 V 4.4619394" />
  <g transform="matrix(6.5796192,0,0,6.5796192,-1965.7633,-105.36316)" style="fill:currentColor;fill-opacity:1">
    <path transform="translate(299.20309,29.5)"
       d="m 0.53125,-7.25 v 4.9375 C 0.71875,-2.488281 0.894531,-2.628906 1.0625,-2.734375 1.226562,-2.847656 1.382812,-2.9375 1.53125,-3 1.6875,-3.0625 1.847656,-3.101562 2.015625,-3.125 c 0.175781,-0.03125 0.375,-0.046875 0.59375,-0.046875 0.257813,0 0.488281,0.058594 0.6875,0.171875 0.207031,0.105469 0.382813,0.246094 0.53125,0.421875 0.15625,0.179687 0.273437,0.375 0.359375,0.59375 0.082031,0.21875 0.125,0.429687 0.125,0.625 0.00781,0.21875 -0.015625,0.4375 -0.078125,0.65625 C 4.179688,-0.492188 4.113281,-0.300781 4.03125,-0.125 3.9375,0.101562 3.785156,0.304688 3.578125,0.484375 3.378906,0.671875 3.195312,0.84375 3.03125,1 2.976562,1.0625 2.863281,1.160156 2.6875,1.296875 2.507812,1.429688 2.304688,1.578125 2.078125,1.734375 1.859375,1.898438 1.625,2.066406 1.375,2.234375 1.125,2.410156 0.894531,2.570312 0.6875,2.71875 0.488281,2.863281 0.320312,2.984375 0.1875,3.078125 0.0625,3.179688 0,3.234375 0,3.234375 V -8.875 H 0.53125 Z M 2.1875,-1.859375 C 2.125,-1.941406 2.035156,-2.007812 1.921875,-2.0625 1.804688,-2.125 1.675781,-2.15625 1.53125,-2.15625 c -0.136719,0 -0.273438,0.042969 -0.40625,0.125 -0.136719,0.085938 -0.257812,0.230469 -0.359375,0.4375 -0.148437,0.261719 -0.226563,0.585938 -0.234375,0.96875 0,0.386719 0,0.738281 0,1.0625 v 1.75 c 0,0 0.039062,-0.03125 0.125,-0.09375 C 0.738281,2.039062 0.835938,1.960938 0.953125,1.859375 1.066406,1.753906 1.1875,1.640625 1.3125,1.515625 1.445312,1.390625 1.570312,1.28125 1.6875,1.1875 1.875,1.007812 2.035156,0.816406 2.171875,0.609375 2.304688,0.410156 2.410156,0.15625 2.484375,-0.15625 2.566406,-0.476562 2.585938,-0.785156 2.546875,-1.078125 2.503906,-1.378906 2.382812,-1.640625 2.1875,-1.859375 Z m 0,0" />
    <path transform="translate(305.18231,24.375)"
       d="M 0.15625,0.015625 C 0.300781,-0.347656 0.507812,-0.6875 0.78125,-1 1.0625,-1.3125 1.382812,-1.585938 1.75,-1.828125 2.125,-2.066406 2.523438,-2.25 2.953125,-2.375 3.378906,-2.507812 3.8125,-2.578125 4.25,-2.578125 c 0.4375,0 0.816406,0.074219 1.140625,0.21875 0.332031,0.136719 0.59375,0.324219 0.78125,0.5625 0.1875,0.242187 0.300781,0.523437 0.34375,0.84375 0.050781,0.324219 0.00781,0.667969 -0.125,1.03125 C 6.253906,0.453125 6.039062,0.796875 5.75,1.109375 5.46875,1.429688 5.140625,1.710938 4.765625,1.953125 4.398438,2.191406 4.003906,2.375 3.578125,2.5 3.148438,2.632812 2.722656,2.703125 2.296875,2.703125 1.859375,2.703125 1.476562,2.628906 1.15625,2.484375 0.832031,2.347656 0.570312,2.15625 0.375,1.90625 0.175781,1.65625 0.0546875,1.367188 0.015625,1.046875 -0.0234375,0.734375 0.0195312,0.390625 0.15625,0.015625 Z m 0,0" />
    <path transform="translate(311.375,29.5)"
       d="M 0.15625,0.015625 C 0.300781,-0.347656 0.507812,-0.6875 0.78125,-1 1.0625,-1.3125 1.382812,-1.585938 1.75,-1.828125 2.125,-2.066406 2.523438,-2.25 2.953125,-2.375 3.378906,-2.507812 3.8125,-2.578125 4.25,-2.578125 c 0.4375,0 0.816406,0.074219 1.140625,0.21875 0.332031,0.136719 0.59375,0.324219 0.78125,0.5625 0.1875,0.242187 0.300781,0.523437 0.34375,0.84375 0.050781,0.324219 0.00781,0.667969 -0.125,1.03125 C 6.253906,0.453125 6.039062,0.796875 5.75,1.109375 5.46875,1.429688 5.140625,1.710938 4.765625,1.953125 4.398438,2.191406 4.003906,2.375 3.578125,2.5 3.148438,2.632812 2.722656,2.703125 2.296875,2.703125 1.859375,2.703125 1.476562,2.628906 1.15625,2.484375 0.832031,2.347656 0.570312,2.15625 0.375,1.90625 0.175781,1.65625 0.0546875,1.367188 0.015625,1.046875 -0.0234375,0.734375 0.0195312,0.390625 0.15625,0.015625 Z m 0,0" />
    <path transform="translate(305.18231,32.0625)"
       d="M 0.15625,0.015625 C 0.300781,-0.347656 0.507812,-0.6875 0.78125,-1 1.0625,-1.3125 1.382812,-1.585938 1.75,-1.828125 2.125,-2.066406 2.523438,-2.25 2.953125,-2.375 3.378906,-2.507812 3.8125,-2.578125 4.25,-2.578125 c 0.4375,0 0.816406,0.074219 1.140625,0.21875 0.332031,0.136719 0.59375,0.324219 0.78125,0.5625 0.1875,0.242187 0.300781,0.523437 0.34375,0.84375 0.050781,0.324219 0.00781,0.667969 -0.125,1.03125 C 6.253906,0.453125 6.039062,0.796875 5.75,1.109375 5.46875,1.429688 5.140625,1.710938 4.765625,1.953125 4.398438,2.191406 4.003906,2.375 3.578125,2.5 3.148438,2.632812 2.722656,2.703125 2.296875,2.703125 1.859375,2.703125 1.476562,2.628906 1.15625,2.484375 0.832031,2.347656 0.570312,2.15625 0.375,1.90625 0.175781,1.65625 0.0546875,1.367188 0.015625,1.046875 -0.0234375,0.734375 0.0195312,0.390625 0.15625,0.015625 Z m 0,0" />
  </g>
</svg>