<svg xmlns="http://www.w3.org/2000/svg" viewBox="0 0 512 512">
  <path style="fill:currentColor"
    d="M 278.06,256 444.48,89.57 c 4.69,-4.69 4.69,-12.29 0,-16.97 -32.8,-32.8 -85.99,-32.8 -118.79,0 L 210.18,188.12 185.32,163.26 C 189.63,152.34 192,140.45 192,128 192,74.98 149.02,32 96,32 42.98,32 0,74.98 0,128 c 0,53.02 42.98,96 96,96 4.54,0 8.99,-0.32 13.36,-0.93 L 142.29,256 109.36,288.93 C 104.99,288.32 100.53,288 96,288 42.98,288 0,330.98 0,384 c 0,53.02 42.98,96 96,96 53.02,0 96,-42.98 96,-96 0,-12.45 -2.37,-24.34 -6.68,-35.26 l 24.86,-24.86 115.51,115.52 c 32.8,32.8 85.99,32.8 118.79,0 4.69,-4.68 4.69,-12.28 0,-16.97 z M 96,160 c -17.64,0 -32,-14.36 -32,-32 0,-17.64 14.36,-32 32,-32 17.64,0 32,14.36 32,32 0,17.64 -14.36,32 -32,32 z m 0,256 c -17.64,0 -32,-14.36 -32,-32 0,-17.64 14.36,-32 32,-32 17.64,0 32,14.36 32,32 0,17.64 -14.36,32 -32,32 z" />
  <path d="m 350,256 130,0" style="fill:none;stroke:currentColor;stroke-width:50;stroke-linecap:round;stroke-dasharray:30,70;stroke-opacity:1" />
</svg>
