<svg height="256" width="256" xmlns="http://www.w3.org/2000/svg"><circle cx="128" cy="128" fill="#c17f44" r="112"/><path d="m128 118v106" stroke="#292723" stroke-linecap="round" stroke-width="10"/><path d="m188 51-7 11s22 17 22 47-22 47-22 47l7 11s28-19 28-58-28-58-28-58zm-22 34s11 10 11 24-11 24-11 24l8 11s16-14 16-35-16-36-16-36zm-101-11s-28 18-28 58c0 38 28 58 28 58l7-12s-22-16-22-46c0-31 22-47 22-47zm15 22s-17 13-17 36 17 35 17 35l7-11s-11-10-11-24 11-25 11-25zm11 29c-4 8 0 19 11 25s23 6 28-2 0-19-11-26c-9-5-22-6-28 3zm43-26c-10 6-16 17-12 26 4 8 16 9 27 4 10-5 18-17 13-26s-19-9-28-4z" fill="#292723"/></svg>